<?xml version="1.0" encoding="utf-8" standalone="no"?>
<!DOCTYPE svg PUBLIC "-//W3C//DTD SVG 1.1//EN"
  "http://www.w3.org/Graphics/SVG/1.1/DTD/svg11.dtd">
<svg xmlns:xlink="http://www.w3.org/1999/xlink" width="720pt" height="432pt" viewBox="0 0 720 432" xmlns="http://www.w3.org/2000/svg" version="1.1">
 <metadata>
  <rdf:RDF xmlns:dc="http://purl.org/dc/elements/1.1/" xmlns:cc="http://creativecommons.org/ns#" xmlns:rdf="http://www.w3.org/1999/02/22-rdf-syntax-ns#">
   <cc:Work>
    <dc:type rdf:resource="http://purl.org/dc/dcmitype/StillImage"/>
    <dc:date>2023-11-28T12:44:24.733202</dc:date>
    <dc:format>image/svg+xml</dc:format>
    <dc:creator>
     <cc:Agent>
      <dc:title>Matplotlib v3.8.2, https://matplotlib.org/</dc:title>
     </cc:Agent>
    </dc:creator>
   </cc:Work>
  </rdf:RDF>
 </metadata>
 <defs>
  <style type="text/css">*{stroke-linejoin: round; stroke-linecap: butt}</style>
 </defs>
 <g id="figure_1">
  <g id="patch_1">
   <path d="M 0 432 
L 720 432 
L 720 0 
L 0 0 
z
" style="fill: #ffffff"/>
  </g>
  <g id="axes_1">
   <g id="patch_2">
    <path d="M 90 384.48 
L 648 384.48 
L 648 51.84 
L 90 51.84 
z
" style="fill: #ffffff"/>
   </g>
   <g id="matplotlib.axis_1">
    <g id="xtick_1">
     <g id="line2d_1">
      <defs>
       <path id="mf416c594f7" d="M 0 0 
L 0 3.5 
" style="stroke: #000000; stroke-width: 0.8"/>
      </defs>
      <g>
       <use xlink:href="#mf416c594f7" x="141.751114" y="384.48" style="stroke: #000000; stroke-width: 0.8"/>
      </g>
     </g>
     <g id="text_1">
      <!-- −8 -->
      <g transform="translate(134.38002 399.078438) scale(0.1 -0.1)">
       <defs>
        <path id="DejaVuSans-2212" d="M 678 2272 
L 4684 2272 
L 4684 1741 
L 678 1741 
L 678 2272 
z
" transform="scale(0.015625)"/>
        <path id="DejaVuSans-38" d="M 2034 2216 
Q 1584 2216 1326 1975 
Q 1069 1734 1069 1313 
Q 1069 891 1326 650 
Q 1584 409 2034 409 
Q 2484 409 2743 651 
Q 3003 894 3003 1313 
Q 3003 1734 2745 1975 
Q 2488 2216 2034 2216 
z
M 1403 2484 
Q 997 2584 770 2862 
Q 544 3141 544 3541 
Q 544 4100 942 4425 
Q 1341 4750 2034 4750 
Q 2731 4750 3128 4425 
Q 3525 4100 3525 3541 
Q 3525 3141 3298 2862 
Q 3072 2584 2669 2484 
Q 3125 2378 3379 2068 
Q 3634 1759 3634 1313 
Q 3634 634 3220 271 
Q 2806 -91 2034 -91 
Q 1263 -91 848 271 
Q 434 634 434 1313 
Q 434 1759 690 2068 
Q 947 2378 1403 2484 
z
M 1172 3481 
Q 1172 3119 1398 2916 
Q 1625 2713 2034 2713 
Q 2441 2713 2670 2916 
Q 2900 3119 2900 3481 
Q 2900 3844 2670 4047 
Q 2441 4250 2034 4250 
Q 1625 4250 1398 4047 
Q 1172 3844 1172 3481 
z
" transform="scale(0.015625)"/>
       </defs>
       <use xlink:href="#DejaVuSans-2212"/>
       <use xlink:href="#DejaVuSans-38" x="83.789062"/>
      </g>
     </g>
    </g>
    <g id="xtick_2">
     <g id="line2d_2">
      <g>
       <use xlink:href="#mf416c594f7" x="204.457605" y="384.48" style="stroke: #000000; stroke-width: 0.8"/>
      </g>
     </g>
     <g id="text_2">
      <!-- −6 -->
      <g transform="translate(197.086512 399.078438) scale(0.1 -0.1)">
       <defs>
        <path id="DejaVuSans-36" d="M 2113 2584 
Q 1688 2584 1439 2293 
Q 1191 2003 1191 1497 
Q 1191 994 1439 701 
Q 1688 409 2113 409 
Q 2538 409 2786 701 
Q 3034 994 3034 1497 
Q 3034 2003 2786 2293 
Q 2538 2584 2113 2584 
z
M 3366 4563 
L 3366 3988 
Q 3128 4100 2886 4159 
Q 2644 4219 2406 4219 
Q 1781 4219 1451 3797 
Q 1122 3375 1075 2522 
Q 1259 2794 1537 2939 
Q 1816 3084 2150 3084 
Q 2853 3084 3261 2657 
Q 3669 2231 3669 1497 
Q 3669 778 3244 343 
Q 2819 -91 2113 -91 
Q 1303 -91 875 529 
Q 447 1150 447 2328 
Q 447 3434 972 4092 
Q 1497 4750 2381 4750 
Q 2619 4750 2861 4703 
Q 3103 4656 3366 4563 
z
" transform="scale(0.015625)"/>
       </defs>
       <use xlink:href="#DejaVuSans-2212"/>
       <use xlink:href="#DejaVuSans-36" x="83.789062"/>
      </g>
     </g>
    </g>
    <g id="xtick_3">
     <g id="line2d_3">
      <g>
       <use xlink:href="#mf416c594f7" x="267.164097" y="384.48" style="stroke: #000000; stroke-width: 0.8"/>
      </g>
     </g>
     <g id="text_3">
      <!-- −4 -->
      <g transform="translate(259.793003 399.078438) scale(0.1 -0.1)">
       <defs>
        <path id="DejaVuSans-34" d="M 2419 4116 
L 825 1625 
L 2419 1625 
L 2419 4116 
z
M 2253 4666 
L 3047 4666 
L 3047 1625 
L 3713 1625 
L 3713 1100 
L 3047 1100 
L 3047 0 
L 2419 0 
L 2419 1100 
L 313 1100 
L 313 1709 
L 2253 4666 
z
" transform="scale(0.015625)"/>
       </defs>
       <use xlink:href="#DejaVuSans-2212"/>
       <use xlink:href="#DejaVuSans-34" x="83.789062"/>
      </g>
     </g>
    </g>
    <g id="xtick_4">
     <g id="line2d_4">
      <g>
       <use xlink:href="#mf416c594f7" x="329.870588" y="384.48" style="stroke: #000000; stroke-width: 0.8"/>
      </g>
     </g>
     <g id="text_4">
      <!-- −2 -->
      <g transform="translate(322.499494 399.078438) scale(0.1 -0.1)">
       <defs>
        <path id="DejaVuSans-32" d="M 1228 531 
L 3431 531 
L 3431 0 
L 469 0 
L 469 531 
Q 828 903 1448 1529 
Q 2069 2156 2228 2338 
Q 2531 2678 2651 2914 
Q 2772 3150 2772 3378 
Q 2772 3750 2511 3984 
Q 2250 4219 1831 4219 
Q 1534 4219 1204 4116 
Q 875 4013 500 3803 
L 500 4441 
Q 881 4594 1212 4672 
Q 1544 4750 1819 4750 
Q 2544 4750 2975 4387 
Q 3406 4025 3406 3419 
Q 3406 3131 3298 2873 
Q 3191 2616 2906 2266 
Q 2828 2175 2409 1742 
Q 1991 1309 1228 531 
z
" transform="scale(0.015625)"/>
       </defs>
       <use xlink:href="#DejaVuSans-2212"/>
       <use xlink:href="#DejaVuSans-32" x="83.789062"/>
      </g>
     </g>
    </g>
    <g id="xtick_5">
     <g id="line2d_5">
      <g>
       <use xlink:href="#mf416c594f7" x="392.577079" y="384.48" style="stroke: #000000; stroke-width: 0.8"/>
      </g>
     </g>
     <g id="text_5">
      <!-- 0 -->
      <g transform="translate(389.395829 399.078438) scale(0.1 -0.1)">
       <defs>
        <path id="DejaVuSans-30" d="M 2034 4250 
Q 1547 4250 1301 3770 
Q 1056 3291 1056 2328 
Q 1056 1369 1301 889 
Q 1547 409 2034 409 
Q 2525 409 2770 889 
Q 3016 1369 3016 2328 
Q 3016 3291 2770 3770 
Q 2525 4250 2034 4250 
z
M 2034 4750 
Q 2819 4750 3233 4129 
Q 3647 3509 3647 2328 
Q 3647 1150 3233 529 
Q 2819 -91 2034 -91 
Q 1250 -91 836 529 
Q 422 1150 422 2328 
Q 422 3509 836 4129 
Q 1250 4750 2034 4750 
z
" transform="scale(0.015625)"/>
       </defs>
       <use xlink:href="#DejaVuSans-30"/>
      </g>
     </g>
    </g>
    <g id="xtick_6">
     <g id="line2d_6">
      <g>
       <use xlink:href="#mf416c594f7" x="455.283571" y="384.48" style="stroke: #000000; stroke-width: 0.8"/>
      </g>
     </g>
     <g id="text_6">
      <!-- 2 -->
      <g transform="translate(452.102321 399.078438) scale(0.1 -0.1)">
       <use xlink:href="#DejaVuSans-32"/>
      </g>
     </g>
    </g>
    <g id="xtick_7">
     <g id="line2d_7">
      <g>
       <use xlink:href="#mf416c594f7" x="517.990062" y="384.48" style="stroke: #000000; stroke-width: 0.8"/>
      </g>
     </g>
     <g id="text_7">
      <!-- 4 -->
      <g transform="translate(514.808812 399.078438) scale(0.1 -0.1)">
       <use xlink:href="#DejaVuSans-34"/>
      </g>
     </g>
    </g>
    <g id="xtick_8">
     <g id="line2d_8">
      <g>
       <use xlink:href="#mf416c594f7" x="580.696554" y="384.48" style="stroke: #000000; stroke-width: 0.8"/>
      </g>
     </g>
     <g id="text_8">
      <!-- 6 -->
      <g transform="translate(577.515304 399.078438) scale(0.1 -0.1)">
       <use xlink:href="#DejaVuSans-36"/>
      </g>
     </g>
    </g>
    <g id="xtick_9">
     <g id="line2d_9">
      <g>
       <use xlink:href="#mf416c594f7" x="643.403045" y="384.48" style="stroke: #000000; stroke-width: 0.8"/>
      </g>
     </g>
     <g id="text_9">
      <!-- 8 -->
      <g transform="translate(640.221795 399.078438) scale(0.1 -0.1)">
       <use xlink:href="#DejaVuSans-38"/>
      </g>
     </g>
    </g>
    <g id="text_10">
     <!-- 1e8 -->
     <g transform="translate(629.121875 411.756563) scale(0.1 -0.1)">
      <defs>
       <path id="DejaVuSans-31" d="M 794 531 
L 1825 531 
L 1825 4091 
L 703 3866 
L 703 4441 
L 1819 4666 
L 2450 4666 
L 2450 531 
L 3481 531 
L 3481 0 
L 794 0 
L 794 531 
z
" transform="scale(0.015625)"/>
       <path id="DejaVuSans-65" d="M 3597 1894 
L 3597 1613 
L 953 1613 
Q 991 1019 1311 708 
Q 1631 397 2203 397 
Q 2534 397 2845 478 
Q 3156 559 3463 722 
L 3463 178 
Q 3153 47 2828 -22 
Q 2503 -91 2169 -91 
Q 1331 -91 842 396 
Q 353 884 353 1716 
Q 353 2575 817 3079 
Q 1281 3584 2069 3584 
Q 2775 3584 3186 3129 
Q 3597 2675 3597 1894 
z
M 3022 2063 
Q 3016 2534 2758 2815 
Q 2500 3097 2075 3097 
Q 1594 3097 1305 2825 
Q 1016 2553 972 2059 
L 3022 2063 
z
" transform="scale(0.015625)"/>
      </defs>
      <use xlink:href="#DejaVuSans-31"/>
      <use xlink:href="#DejaVuSans-65" x="63.623047"/>
      <use xlink:href="#DejaVuSans-38" x="125.146484"/>
     </g>
    </g>
   </g>
   <g id="matplotlib.axis_2">
    <g id="ytick_1">
     <g id="line2d_10">
      <defs>
       <path id="m0ab3c90a8a" d="M 0 0 
L -3.5 0 
" style="stroke: #000000; stroke-width: 0.8"/>
      </defs>
      <g>
       <use xlink:href="#m0ab3c90a8a" x="90" y="365.406713" style="stroke: #000000; stroke-width: 0.8"/>
      </g>
     </g>
     <g id="text_11">
      <!-- −6 -->
      <g transform="translate(68.257812 369.205931) scale(0.1 -0.1)">
       <use xlink:href="#DejaVuSans-2212"/>
       <use xlink:href="#DejaVuSans-36" x="83.789062"/>
      </g>
     </g>
    </g>
    <g id="ytick_2">
     <g id="line2d_11">
      <g>
       <use xlink:href="#m0ab3c90a8a" x="90" y="326.129815" style="stroke: #000000; stroke-width: 0.8"/>
      </g>
     </g>
     <g id="text_12">
      <!-- −4 -->
      <g transform="translate(68.257812 329.929034) scale(0.1 -0.1)">
       <use xlink:href="#DejaVuSans-2212"/>
       <use xlink:href="#DejaVuSans-34" x="83.789062"/>
      </g>
     </g>
    </g>
    <g id="ytick_3">
     <g id="line2d_12">
      <g>
       <use xlink:href="#m0ab3c90a8a" x="90" y="286.852918" style="stroke: #000000; stroke-width: 0.8"/>
      </g>
     </g>
     <g id="text_13">
      <!-- −2 -->
      <g transform="translate(68.257812 290.652137) scale(0.1 -0.1)">
       <use xlink:href="#DejaVuSans-2212"/>
       <use xlink:href="#DejaVuSans-32" x="83.789062"/>
      </g>
     </g>
    </g>
    <g id="ytick_4">
     <g id="line2d_13">
      <g>
       <use xlink:href="#m0ab3c90a8a" x="90" y="247.576021" style="stroke: #000000; stroke-width: 0.8"/>
      </g>
     </g>
     <g id="text_14">
      <!-- 0 -->
      <g transform="translate(76.6375 251.37524) scale(0.1 -0.1)">
       <use xlink:href="#DejaVuSans-30"/>
      </g>
     </g>
    </g>
    <g id="ytick_5">
     <g id="line2d_14">
      <g>
       <use xlink:href="#m0ab3c90a8a" x="90" y="208.299124" style="stroke: #000000; stroke-width: 0.8"/>
      </g>
     </g>
     <g id="text_15">
      <!-- 2 -->
      <g transform="translate(76.6375 212.098343) scale(0.1 -0.1)">
       <use xlink:href="#DejaVuSans-32"/>
      </g>
     </g>
    </g>
    <g id="ytick_6">
     <g id="line2d_15">
      <g>
       <use xlink:href="#m0ab3c90a8a" x="90" y="169.022227" style="stroke: #000000; stroke-width: 0.8"/>
      </g>
     </g>
     <g id="text_16">
      <!-- 4 -->
      <g transform="translate(76.6375 172.821446) scale(0.1 -0.1)">
       <use xlink:href="#DejaVuSans-34"/>
      </g>
     </g>
    </g>
    <g id="ytick_7">
     <g id="line2d_16">
      <g>
       <use xlink:href="#m0ab3c90a8a" x="90" y="129.74533" style="stroke: #000000; stroke-width: 0.8"/>
      </g>
     </g>
     <g id="text_17">
      <!-- 6 -->
      <g transform="translate(76.6375 133.544549) scale(0.1 -0.1)">
       <use xlink:href="#DejaVuSans-36"/>
      </g>
     </g>
    </g>
    <g id="ytick_8">
     <g id="line2d_17">
      <g>
       <use xlink:href="#m0ab3c90a8a" x="90" y="90.468433" style="stroke: #000000; stroke-width: 0.8"/>
      </g>
     </g>
     <g id="text_18">
      <!-- 8 -->
      <g transform="translate(76.6375 94.267652) scale(0.1 -0.1)">
       <use xlink:href="#DejaVuSans-38"/>
      </g>
     </g>
    </g>
    <g id="text_19">
     <!-- 1e8 -->
     <g transform="translate(90 48.84) scale(0.1 -0.1)">
      <use xlink:href="#DejaVuSans-31"/>
      <use xlink:href="#DejaVuSans-65" x="63.623047"/>
      <use xlink:href="#DejaVuSans-38" x="125.146484"/>
     </g>
    </g>
   </g>
   <g id="line2d_18">
    <defs>
     <path id="mcee02a7ed5" d="M 0 3 
C 0.795609 3 1.55874 2.683901 2.12132 2.12132 
C 2.683901 1.55874 3 0.795609 3 0 
C 3 -0.795609 2.683901 -1.55874 2.12132 -2.12132 
C 1.55874 -2.683901 0.795609 -3 0 -3 
C -0.795609 -3 -1.55874 -2.683901 -2.12132 -2.12132 
C -2.683901 -1.55874 -3 -0.795609 -3 0 
C -3 0.795609 -2.683901 1.55874 -2.12132 2.12132 
C -1.55874 2.683901 -0.795609 3 0 3 
z
" style="stroke: #ff0000"/>
    </defs>
    <g clip-path="url(#pffff762ebc)">
     <use xlink:href="#mcee02a7ed5" x="191.512974" y="325.00628" style="fill: #ff0000; stroke: #ff0000"/>
     <use xlink:href="#mcee02a7ed5" x="191.663933" y="358.315509" style="fill: #ff0000; stroke: #ff0000"/>
     <use xlink:href="#mcee02a7ed5" x="203.368272" y="359.332468" style="fill: #ff0000; stroke: #ff0000"/>
     <use xlink:href="#mcee02a7ed5" x="115.363636" y="321.757621" style="fill: #ff0000; stroke: #ff0000"/>
     <use xlink:href="#mcee02a7ed5" x="224.568437" y="340.664828" style="fill: #ff0000; stroke: #ff0000"/>
     <use xlink:href="#mcee02a7ed5" x="215.737685" y="301.767199" style="fill: #ff0000; stroke: #ff0000"/>
     <use xlink:href="#mcee02a7ed5" x="241.124431" y="303.317269" style="fill: #ff0000; stroke: #ff0000"/>
     <use xlink:href="#mcee02a7ed5" x="167.785678" y="306.247012" style="fill: #ff0000; stroke: #ff0000"/>
     <use xlink:href="#mcee02a7ed5" x="180.44853" y="322.884742" style="fill: #ff0000; stroke: #ff0000"/>
     <use xlink:href="#mcee02a7ed5" x="192.832116" y="332.907982" style="fill: #ff0000; stroke: #ff0000"/>
     <use xlink:href="#mcee02a7ed5" x="206.2485" y="282.371597" style="fill: #ff0000; stroke: #ff0000"/>
     <use xlink:href="#mcee02a7ed5" x="177.222532" y="296.701159" style="fill: #ff0000; stroke: #ff0000"/>
     <use xlink:href="#mcee02a7ed5" x="199.904862" y="324.563485" style="fill: #ff0000; stroke: #ff0000"/>
     <use xlink:href="#mcee02a7ed5" x="161.318282" y="350.20666" style="fill: #ff0000; stroke: #ff0000"/>
     <use xlink:href="#mcee02a7ed5" x="226.667874" y="369.36" style="fill: #ff0000; stroke: #ff0000"/>
     <use xlink:href="#mcee02a7ed5" x="171.71843" y="303.30508" style="fill: #ff0000; stroke: #ff0000"/>
     <use xlink:href="#mcee02a7ed5" x="232.592159" y="290.359202" style="fill: #ff0000; stroke: #ff0000"/>
     <use xlink:href="#mcee02a7ed5" x="134.148015" y="343.456546" style="fill: #ff0000; stroke: #ff0000"/>
     <use xlink:href="#mcee02a7ed5" x="258.101297" y="351.739573" style="fill: #ff0000; stroke: #ff0000"/>
     <use xlink:href="#mcee02a7ed5" x="245.727389" y="339.417306" style="fill: #ff0000; stroke: #ff0000"/>
     <use xlink:href="#mcee02a7ed5" x="213.815901" y="288.373714" style="fill: #ff0000; stroke: #ff0000"/>
     <use xlink:href="#mcee02a7ed5" x="241.547852" y="353.381183" style="fill: #ff0000; stroke: #ff0000"/>
     <use xlink:href="#mcee02a7ed5" x="243.390939" y="358.29421" style="fill: #ff0000; stroke: #ff0000"/>
     <use xlink:href="#mcee02a7ed5" x="160.35724" y="317.174793" style="fill: #ff0000; stroke: #ff0000"/>
     <use xlink:href="#mcee02a7ed5" x="211.570527" y="313.177033" style="fill: #ff0000; stroke: #ff0000"/>
     <use xlink:href="#mcee02a7ed5" x="265.356895" y="103.952106" style="fill: #ff0000; stroke: #ff0000"/>
     <use xlink:href="#mcee02a7ed5" x="263.174522" y="82.834853" style="fill: #ff0000; stroke: #ff0000"/>
     <use xlink:href="#mcee02a7ed5" x="286.629452" y="108.847582" style="fill: #ff0000; stroke: #ff0000"/>
     <use xlink:href="#mcee02a7ed5" x="270.135842" y="149.840304" style="fill: #ff0000; stroke: #ff0000"/>
     <use xlink:href="#mcee02a7ed5" x="272.230158" y="87.711277" style="fill: #ff0000; stroke: #ff0000"/>
     <use xlink:href="#mcee02a7ed5" x="241.94729" y="66.96" style="fill: #ff0000; stroke: #ff0000"/>
     <use xlink:href="#mcee02a7ed5" x="311.061696" y="138.48767" style="fill: #ff0000; stroke: #ff0000"/>
     <use xlink:href="#mcee02a7ed5" x="293.823208" y="98.852564" style="fill: #ff0000; stroke: #ff0000"/>
     <use xlink:href="#mcee02a7ed5" x="325.28903" y="124.105873" style="fill: #ff0000; stroke: #ff0000"/>
     <use xlink:href="#mcee02a7ed5" x="276.550616" y="74.983844" style="fill: #ff0000; stroke: #ff0000"/>
     <use xlink:href="#mcee02a7ed5" x="277.473812" y="71.453449" style="fill: #ff0000; stroke: #ff0000"/>
     <use xlink:href="#mcee02a7ed5" x="227.441329" y="138.167016" style="fill: #ff0000; stroke: #ff0000"/>
     <use xlink:href="#mcee02a7ed5" x="318.030631" y="69.459727" style="fill: #ff0000; stroke: #ff0000"/>
     <use xlink:href="#mcee02a7ed5" x="259.793067" y="136.230736" style="fill: #ff0000; stroke: #ff0000"/>
     <use xlink:href="#mcee02a7ed5" x="240.940334" y="151.740536" style="fill: #ff0000; stroke: #ff0000"/>
     <use xlink:href="#mcee02a7ed5" x="280.099552" y="99.522219" style="fill: #ff0000; stroke: #ff0000"/>
     <use xlink:href="#mcee02a7ed5" x="295.626972" y="146.632964" style="fill: #ff0000; stroke: #ff0000"/>
     <use xlink:href="#mcee02a7ed5" x="274.074557" y="80.357751" style="fill: #ff0000; stroke: #ff0000"/>
     <use xlink:href="#mcee02a7ed5" x="305.011023" y="70.539634" style="fill: #ff0000; stroke: #ff0000"/>
     <use xlink:href="#mcee02a7ed5" x="265.626781" y="105.818873" style="fill: #ff0000; stroke: #ff0000"/>
     <use xlink:href="#mcee02a7ed5" x="283.712299" y="69.119447" style="fill: #ff0000; stroke: #ff0000"/>
     <use xlink:href="#mcee02a7ed5" x="262.154675" y="109.617908" style="fill: #ff0000; stroke: #ff0000"/>
     <use xlink:href="#mcee02a7ed5" x="318.435453" y="94.391481" style="fill: #ff0000; stroke: #ff0000"/>
     <use xlink:href="#mcee02a7ed5" x="332.352653" y="98.67798" style="fill: #ff0000; stroke: #ff0000"/>
     <use xlink:href="#mcee02a7ed5" x="204.514213" y="90.754057" style="fill: #ff0000; stroke: #ff0000"/>
     <use xlink:href="#mcee02a7ed5" x="428.98014" y="217.00283" style="fill: #ff0000; stroke: #ff0000"/>
     <use xlink:href="#mcee02a7ed5" x="438.905392" y="263.77975" style="fill: #ff0000; stroke: #ff0000"/>
     <use xlink:href="#mcee02a7ed5" x="382.074031" y="219.833314" style="fill: #ff0000; stroke: #ff0000"/>
     <use xlink:href="#mcee02a7ed5" x="482.153241" y="227.577829" style="fill: #ff0000; stroke: #ff0000"/>
     <use xlink:href="#mcee02a7ed5" x="471.726336" y="189.466659" style="fill: #ff0000; stroke: #ff0000"/>
     <use xlink:href="#mcee02a7ed5" x="388.459937" y="196.691268" style="fill: #ff0000; stroke: #ff0000"/>
     <use xlink:href="#mcee02a7ed5" x="463.288946" y="175.202535" style="fill: #ff0000; stroke: #ff0000"/>
     <use xlink:href="#mcee02a7ed5" x="441.997289" y="244.86314" style="fill: #ff0000; stroke: #ff0000"/>
     <use xlink:href="#mcee02a7ed5" x="352.424539" y="236.588054" style="fill: #ff0000; stroke: #ff0000"/>
     <use xlink:href="#mcee02a7ed5" x="377.849373" y="200.715804" style="fill: #ff0000; stroke: #ff0000"/>
     <use xlink:href="#mcee02a7ed5" x="438.728045" y="255.818165" style="fill: #ff0000; stroke: #ff0000"/>
     <use xlink:href="#mcee02a7ed5" x="430.463306" y="243.731102" style="fill: #ff0000; stroke: #ff0000"/>
     <use xlink:href="#mcee02a7ed5" x="487.26094" y="190.654734" style="fill: #ff0000; stroke: #ff0000"/>
     <use xlink:href="#mcee02a7ed5" x="460.282152" y="236.734655" style="fill: #ff0000; stroke: #ff0000"/>
     <use xlink:href="#mcee02a7ed5" x="410.97361" y="189.36431" style="fill: #ff0000; stroke: #ff0000"/>
     <use xlink:href="#mcee02a7ed5" x="427.680698" y="178.469031" style="fill: #ff0000; stroke: #ff0000"/>
     <use xlink:href="#mcee02a7ed5" x="453.425535" y="247.303009" style="fill: #ff0000; stroke: #ff0000"/>
     <use xlink:href="#mcee02a7ed5" x="389.523357" y="243.477272" style="fill: #ff0000; stroke: #ff0000"/>
     <use xlink:href="#mcee02a7ed5" x="413.548941" y="188.830806" style="fill: #ff0000; stroke: #ff0000"/>
     <use xlink:href="#mcee02a7ed5" x="458.619943" y="229.516629" style="fill: #ff0000; stroke: #ff0000"/>
     <use xlink:href="#mcee02a7ed5" x="423.433237" y="250.900384" style="fill: #ff0000; stroke: #ff0000"/>
     <use xlink:href="#mcee02a7ed5" x="451.290198" y="225.60253" style="fill: #ff0000; stroke: #ff0000"/>
     <use xlink:href="#mcee02a7ed5" x="429.429007" y="260.1152" style="fill: #ff0000; stroke: #ff0000"/>
     <use xlink:href="#mcee02a7ed5" x="376.2384" y="195.014289" style="fill: #ff0000; stroke: #ff0000"/>
     <use xlink:href="#mcee02a7ed5" x="380.444339" y="258.31752" style="fill: #ff0000; stroke: #ff0000"/>
     <use xlink:href="#mcee02a7ed5" x="569.984167" y="310.226706" style="fill: #ff0000; stroke: #ff0000"/>
     <use xlink:href="#mcee02a7ed5" x="547.116154" y="353.279162" style="fill: #ff0000; stroke: #ff0000"/>
     <use xlink:href="#mcee02a7ed5" x="583.444335" y="267.129139" style="fill: #ff0000; stroke: #ff0000"/>
     <use xlink:href="#mcee02a7ed5" x="561.765722" y="316.255971" style="fill: #ff0000; stroke: #ff0000"/>
     <use xlink:href="#mcee02a7ed5" x="576.29918" y="312.223059" style="fill: #ff0000; stroke: #ff0000"/>
     <use xlink:href="#mcee02a7ed5" x="529.65104" y="333.255409" style="fill: #ff0000; stroke: #ff0000"/>
     <use xlink:href="#mcee02a7ed5" x="592.673059" y="288.118302" style="fill: #ff0000; stroke: #ff0000"/>
     <use xlink:href="#mcee02a7ed5" x="539.279617" y="292.225114" style="fill: #ff0000; stroke: #ff0000"/>
     <use xlink:href="#mcee02a7ed5" x="566.338632" y="349.360066" style="fill: #ff0000; stroke: #ff0000"/>
     <use xlink:href="#mcee02a7ed5" x="587.719227" y="360.518581" style="fill: #ff0000; stroke: #ff0000"/>
     <use xlink:href="#mcee02a7ed5" x="489.747189" y="305.028117" style="fill: #ff0000; stroke: #ff0000"/>
     <use xlink:href="#mcee02a7ed5" x="506.622238" y="297.928454" style="fill: #ff0000; stroke: #ff0000"/>
     <use xlink:href="#mcee02a7ed5" x="553.187343" y="309.622725" style="fill: #ff0000; stroke: #ff0000"/>
     <use xlink:href="#mcee02a7ed5" x="575.514315" y="315.548157" style="fill: #ff0000; stroke: #ff0000"/>
     <use xlink:href="#mcee02a7ed5" x="575.134692" y="323.565081" style="fill: #ff0000; stroke: #ff0000"/>
     <use xlink:href="#mcee02a7ed5" x="530.084315" y="273.987944" style="fill: #ff0000; stroke: #ff0000"/>
     <use xlink:href="#mcee02a7ed5" x="547.42581" y="333.8927" style="fill: #ff0000; stroke: #ff0000"/>
     <use xlink:href="#mcee02a7ed5" x="572.787403" y="324.673103" style="fill: #ff0000; stroke: #ff0000"/>
     <use xlink:href="#mcee02a7ed5" x="517.869744" y="308.744651" style="fill: #ff0000; stroke: #ff0000"/>
     <use xlink:href="#mcee02a7ed5" x="622.636364" y="300.449588" style="fill: #ff0000; stroke: #ff0000"/>
     <use xlink:href="#mcee02a7ed5" x="554.213899" y="300.058127" style="fill: #ff0000; stroke: #ff0000"/>
     <use xlink:href="#mcee02a7ed5" x="582.017918" y="307.31937" style="fill: #ff0000; stroke: #ff0000"/>
     <use xlink:href="#mcee02a7ed5" x="548.972335" y="356.381068" style="fill: #ff0000; stroke: #ff0000"/>
     <use xlink:href="#mcee02a7ed5" x="559.606395" y="304.927315" style="fill: #ff0000; stroke: #ff0000"/>
     <use xlink:href="#mcee02a7ed5" x="620.949254" y="281.358778" style="fill: #ff0000; stroke: #ff0000"/>
    </g>
   </g>
   <g id="patch_3">
    <path d="M 90 384.48 
L 90 51.84 
" style="fill: none; stroke: #000000; stroke-width: 0.8; stroke-linejoin: miter; stroke-linecap: square"/>
   </g>
   <g id="patch_4">
    <path d="M 648 384.48 
L 648 51.84 
" style="fill: none; stroke: #000000; stroke-width: 0.8; stroke-linejoin: miter; stroke-linecap: square"/>
   </g>
   <g id="patch_5">
    <path d="M 90 384.48 
L 648 384.48 
" style="fill: none; stroke: #000000; stroke-width: 0.8; stroke-linejoin: miter; stroke-linecap: square"/>
   </g>
   <g id="patch_6">
    <path d="M 90 51.84 
L 648 51.84 
" style="fill: none; stroke: #000000; stroke-width: 0.8; stroke-linejoin: miter; stroke-linecap: square"/>
   </g>
   <g id="legend_1">
    <g id="patch_7">
     <path d="M 578.96875 74.518125 
L 641 74.518125 
Q 643 74.518125 643 72.518125 
L 643 58.84 
Q 643 56.84 641 56.84 
L 578.96875 56.84 
Q 576.96875 56.84 576.96875 58.84 
L 576.96875 72.518125 
Q 576.96875 74.518125 578.96875 74.518125 
z
" style="fill: #ffffff; opacity: 0.8; stroke: #cccccc; stroke-linejoin: miter"/>
    </g>
    <g id="line2d_19">
     <g>
      <use xlink:href="#mcee02a7ed5" x="590.96875" y="64.938438" style="fill: #ff0000; stroke: #ff0000"/>
     </g>
    </g>
    <g id="text_20">
     <!-- Points -->
     <g transform="translate(608.96875 68.438438) scale(0.1 -0.1)">
      <defs>
       <path id="DejaVuSans-50" d="M 1259 4147 
L 1259 2394 
L 2053 2394 
Q 2494 2394 2734 2622 
Q 2975 2850 2975 3272 
Q 2975 3691 2734 3919 
Q 2494 4147 2053 4147 
L 1259 4147 
z
M 628 4666 
L 2053 4666 
Q 2838 4666 3239 4311 
Q 3641 3956 3641 3272 
Q 3641 2581 3239 2228 
Q 2838 1875 2053 1875 
L 1259 1875 
L 1259 0 
L 628 0 
L 628 4666 
z
" transform="scale(0.015625)"/>
       <path id="DejaVuSans-6f" d="M 1959 3097 
Q 1497 3097 1228 2736 
Q 959 2375 959 1747 
Q 959 1119 1226 758 
Q 1494 397 1959 397 
Q 2419 397 2687 759 
Q 2956 1122 2956 1747 
Q 2956 2369 2687 2733 
Q 2419 3097 1959 3097 
z
M 1959 3584 
Q 2709 3584 3137 3096 
Q 3566 2609 3566 1747 
Q 3566 888 3137 398 
Q 2709 -91 1959 -91 
Q 1206 -91 779 398 
Q 353 888 353 1747 
Q 353 2609 779 3096 
Q 1206 3584 1959 3584 
z
" transform="scale(0.015625)"/>
       <path id="DejaVuSans-69" d="M 603 3500 
L 1178 3500 
L 1178 0 
L 603 0 
L 603 3500 
z
M 603 4863 
L 1178 4863 
L 1178 4134 
L 603 4134 
L 603 4863 
z
" transform="scale(0.015625)"/>
       <path id="DejaVuSans-6e" d="M 3513 2113 
L 3513 0 
L 2938 0 
L 2938 2094 
Q 2938 2591 2744 2837 
Q 2550 3084 2163 3084 
Q 1697 3084 1428 2787 
Q 1159 2491 1159 1978 
L 1159 0 
L 581 0 
L 581 3500 
L 1159 3500 
L 1159 2956 
Q 1366 3272 1645 3428 
Q 1925 3584 2291 3584 
Q 2894 3584 3203 3211 
Q 3513 2838 3513 2113 
z
" transform="scale(0.015625)"/>
       <path id="DejaVuSans-74" d="M 1172 4494 
L 1172 3500 
L 2356 3500 
L 2356 3053 
L 1172 3053 
L 1172 1153 
Q 1172 725 1289 603 
Q 1406 481 1766 481 
L 2356 481 
L 2356 0 
L 1766 0 
Q 1100 0 847 248 
Q 594 497 594 1153 
L 594 3053 
L 172 3053 
L 172 3500 
L 594 3500 
L 594 4494 
L 1172 4494 
z
" transform="scale(0.015625)"/>
       <path id="DejaVuSans-73" d="M 2834 3397 
L 2834 2853 
Q 2591 2978 2328 3040 
Q 2066 3103 1784 3103 
Q 1356 3103 1142 2972 
Q 928 2841 928 2578 
Q 928 2378 1081 2264 
Q 1234 2150 1697 2047 
L 1894 2003 
Q 2506 1872 2764 1633 
Q 3022 1394 3022 966 
Q 3022 478 2636 193 
Q 2250 -91 1575 -91 
Q 1294 -91 989 -36 
Q 684 19 347 128 
L 347 722 
Q 666 556 975 473 
Q 1284 391 1588 391 
Q 1994 391 2212 530 
Q 2431 669 2431 922 
Q 2431 1156 2273 1281 
Q 2116 1406 1581 1522 
L 1381 1569 
Q 847 1681 609 1914 
Q 372 2147 372 2553 
Q 372 3047 722 3315 
Q 1072 3584 1716 3584 
Q 2034 3584 2315 3537 
Q 2597 3491 2834 3397 
z
" transform="scale(0.015625)"/>
      </defs>
      <use xlink:href="#DejaVuSans-50"/>
      <use xlink:href="#DejaVuSans-6f" x="56.677734"/>
      <use xlink:href="#DejaVuSans-69" x="117.859375"/>
      <use xlink:href="#DejaVuSans-6e" x="145.642578"/>
      <use xlink:href="#DejaVuSans-74" x="209.021484"/>
      <use xlink:href="#DejaVuSans-73" x="248.230469"/>
     </g>
    </g>
   </g>
  </g>
 </g>
 <defs>
  <clipPath id="pffff762ebc">
   <rect x="90" y="51.84" width="558" height="332.64"/>
  </clipPath>
 </defs>
</svg>
