<?xml version="1.0" encoding="utf-8" standalone="no"?>
<!DOCTYPE svg PUBLIC "-//W3C//DTD SVG 1.1//EN"
  "http://www.w3.org/Graphics/SVG/1.1/DTD/svg11.dtd">
<svg xmlns:xlink="http://www.w3.org/1999/xlink" width="720pt" height="432pt" viewBox="0 0 720 432" xmlns="http://www.w3.org/2000/svg" version="1.1">
 <metadata>
  <rdf:RDF xmlns:dc="http://purl.org/dc/elements/1.1/" xmlns:cc="http://creativecommons.org/ns#" xmlns:rdf="http://www.w3.org/1999/02/22-rdf-syntax-ns#">
   <cc:Work>
    <dc:type rdf:resource="http://purl.org/dc/dcmitype/StillImage"/>
    <dc:date>2023-11-28T12:44:41.700165</dc:date>
    <dc:format>image/svg+xml</dc:format>
    <dc:creator>
     <cc:Agent>
      <dc:title>Matplotlib v3.8.2, https://matplotlib.org/</dc:title>
     </cc:Agent>
    </dc:creator>
   </cc:Work>
  </rdf:RDF>
 </metadata>
 <defs>
  <style type="text/css">*{stroke-linejoin: round; stroke-linecap: butt}</style>
 </defs>
 <g id="figure_1">
  <g id="patch_1">
   <path d="M 0 432 
L 720 432 
L 720 0 
L 0 0 
z
" style="fill: #ffffff"/>
  </g>
  <g id="axes_1">
   <g id="patch_2">
    <path d="M 90 384.48 
L 648 384.48 
L 648 51.84 
L 90 51.84 
z
" style="fill: #ffffff"/>
   </g>
   <g id="matplotlib.axis_1">
    <g id="xtick_1">
     <g id="line2d_1">
      <defs>
       <path id="m5a503db89d" d="M 0 0 
L 0 3.5 
" style="stroke: #000000; stroke-width: 0.8"/>
      </defs>
      <g>
       <use xlink:href="#m5a503db89d" x="141.751114" y="384.48" style="stroke: #000000; stroke-width: 0.8"/>
      </g>
     </g>
     <g id="text_1">
      <!-- −8 -->
      <g transform="translate(134.38002 399.078438) scale(0.1 -0.1)">
       <defs>
        <path id="DejaVuSans-2212" d="M 678 2272 
L 4684 2272 
L 4684 1741 
L 678 1741 
L 678 2272 
z
" transform="scale(0.015625)"/>
        <path id="DejaVuSans-38" d="M 2034 2216 
Q 1584 2216 1326 1975 
Q 1069 1734 1069 1313 
Q 1069 891 1326 650 
Q 1584 409 2034 409 
Q 2484 409 2743 651 
Q 3003 894 3003 1313 
Q 3003 1734 2745 1975 
Q 2488 2216 2034 2216 
z
M 1403 2484 
Q 997 2584 770 2862 
Q 544 3141 544 3541 
Q 544 4100 942 4425 
Q 1341 4750 2034 4750 
Q 2731 4750 3128 4425 
Q 3525 4100 3525 3541 
Q 3525 3141 3298 2862 
Q 3072 2584 2669 2484 
Q 3125 2378 3379 2068 
Q 3634 1759 3634 1313 
Q 3634 634 3220 271 
Q 2806 -91 2034 -91 
Q 1263 -91 848 271 
Q 434 634 434 1313 
Q 434 1759 690 2068 
Q 947 2378 1403 2484 
z
M 1172 3481 
Q 1172 3119 1398 2916 
Q 1625 2713 2034 2713 
Q 2441 2713 2670 2916 
Q 2900 3119 2900 3481 
Q 2900 3844 2670 4047 
Q 2441 4250 2034 4250 
Q 1625 4250 1398 4047 
Q 1172 3844 1172 3481 
z
" transform="scale(0.015625)"/>
       </defs>
       <use xlink:href="#DejaVuSans-2212"/>
       <use xlink:href="#DejaVuSans-38" x="83.789062"/>
      </g>
     </g>
    </g>
    <g id="xtick_2">
     <g id="line2d_2">
      <g>
       <use xlink:href="#m5a503db89d" x="204.457605" y="384.48" style="stroke: #000000; stroke-width: 0.8"/>
      </g>
     </g>
     <g id="text_2">
      <!-- −6 -->
      <g transform="translate(197.086512 399.078438) scale(0.1 -0.1)">
       <defs>
        <path id="DejaVuSans-36" d="M 2113 2584 
Q 1688 2584 1439 2293 
Q 1191 2003 1191 1497 
Q 1191 994 1439 701 
Q 1688 409 2113 409 
Q 2538 409 2786 701 
Q 3034 994 3034 1497 
Q 3034 2003 2786 2293 
Q 2538 2584 2113 2584 
z
M 3366 4563 
L 3366 3988 
Q 3128 4100 2886 4159 
Q 2644 4219 2406 4219 
Q 1781 4219 1451 3797 
Q 1122 3375 1075 2522 
Q 1259 2794 1537 2939 
Q 1816 3084 2150 3084 
Q 2853 3084 3261 2657 
Q 3669 2231 3669 1497 
Q 3669 778 3244 343 
Q 2819 -91 2113 -91 
Q 1303 -91 875 529 
Q 447 1150 447 2328 
Q 447 3434 972 4092 
Q 1497 4750 2381 4750 
Q 2619 4750 2861 4703 
Q 3103 4656 3366 4563 
z
" transform="scale(0.015625)"/>
       </defs>
       <use xlink:href="#DejaVuSans-2212"/>
       <use xlink:href="#DejaVuSans-36" x="83.789062"/>
      </g>
     </g>
    </g>
    <g id="xtick_3">
     <g id="line2d_3">
      <g>
       <use xlink:href="#m5a503db89d" x="267.164097" y="384.48" style="stroke: #000000; stroke-width: 0.8"/>
      </g>
     </g>
     <g id="text_3">
      <!-- −4 -->
      <g transform="translate(259.793003 399.078438) scale(0.1 -0.1)">
       <defs>
        <path id="DejaVuSans-34" d="M 2419 4116 
L 825 1625 
L 2419 1625 
L 2419 4116 
z
M 2253 4666 
L 3047 4666 
L 3047 1625 
L 3713 1625 
L 3713 1100 
L 3047 1100 
L 3047 0 
L 2419 0 
L 2419 1100 
L 313 1100 
L 313 1709 
L 2253 4666 
z
" transform="scale(0.015625)"/>
       </defs>
       <use xlink:href="#DejaVuSans-2212"/>
       <use xlink:href="#DejaVuSans-34" x="83.789062"/>
      </g>
     </g>
    </g>
    <g id="xtick_4">
     <g id="line2d_4">
      <g>
       <use xlink:href="#m5a503db89d" x="329.870588" y="384.48" style="stroke: #000000; stroke-width: 0.8"/>
      </g>
     </g>
     <g id="text_4">
      <!-- −2 -->
      <g transform="translate(322.499494 399.078438) scale(0.1 -0.1)">
       <defs>
        <path id="DejaVuSans-32" d="M 1228 531 
L 3431 531 
L 3431 0 
L 469 0 
L 469 531 
Q 828 903 1448 1529 
Q 2069 2156 2228 2338 
Q 2531 2678 2651 2914 
Q 2772 3150 2772 3378 
Q 2772 3750 2511 3984 
Q 2250 4219 1831 4219 
Q 1534 4219 1204 4116 
Q 875 4013 500 3803 
L 500 4441 
Q 881 4594 1212 4672 
Q 1544 4750 1819 4750 
Q 2544 4750 2975 4387 
Q 3406 4025 3406 3419 
Q 3406 3131 3298 2873 
Q 3191 2616 2906 2266 
Q 2828 2175 2409 1742 
Q 1991 1309 1228 531 
z
" transform="scale(0.015625)"/>
       </defs>
       <use xlink:href="#DejaVuSans-2212"/>
       <use xlink:href="#DejaVuSans-32" x="83.789062"/>
      </g>
     </g>
    </g>
    <g id="xtick_5">
     <g id="line2d_5">
      <g>
       <use xlink:href="#m5a503db89d" x="392.577079" y="384.48" style="stroke: #000000; stroke-width: 0.8"/>
      </g>
     </g>
     <g id="text_5">
      <!-- 0 -->
      <g transform="translate(389.395829 399.078438) scale(0.1 -0.1)">
       <defs>
        <path id="DejaVuSans-30" d="M 2034 4250 
Q 1547 4250 1301 3770 
Q 1056 3291 1056 2328 
Q 1056 1369 1301 889 
Q 1547 409 2034 409 
Q 2525 409 2770 889 
Q 3016 1369 3016 2328 
Q 3016 3291 2770 3770 
Q 2525 4250 2034 4250 
z
M 2034 4750 
Q 2819 4750 3233 4129 
Q 3647 3509 3647 2328 
Q 3647 1150 3233 529 
Q 2819 -91 2034 -91 
Q 1250 -91 836 529 
Q 422 1150 422 2328 
Q 422 3509 836 4129 
Q 1250 4750 2034 4750 
z
" transform="scale(0.015625)"/>
       </defs>
       <use xlink:href="#DejaVuSans-30"/>
      </g>
     </g>
    </g>
    <g id="xtick_6">
     <g id="line2d_6">
      <g>
       <use xlink:href="#m5a503db89d" x="455.283571" y="384.48" style="stroke: #000000; stroke-width: 0.8"/>
      </g>
     </g>
     <g id="text_6">
      <!-- 2 -->
      <g transform="translate(452.102321 399.078438) scale(0.1 -0.1)">
       <use xlink:href="#DejaVuSans-32"/>
      </g>
     </g>
    </g>
    <g id="xtick_7">
     <g id="line2d_7">
      <g>
       <use xlink:href="#m5a503db89d" x="517.990062" y="384.48" style="stroke: #000000; stroke-width: 0.8"/>
      </g>
     </g>
     <g id="text_7">
      <!-- 4 -->
      <g transform="translate(514.808812 399.078438) scale(0.1 -0.1)">
       <use xlink:href="#DejaVuSans-34"/>
      </g>
     </g>
    </g>
    <g id="xtick_8">
     <g id="line2d_8">
      <g>
       <use xlink:href="#m5a503db89d" x="580.696554" y="384.48" style="stroke: #000000; stroke-width: 0.8"/>
      </g>
     </g>
     <g id="text_8">
      <!-- 6 -->
      <g transform="translate(577.515304 399.078438) scale(0.1 -0.1)">
       <use xlink:href="#DejaVuSans-36"/>
      </g>
     </g>
    </g>
    <g id="xtick_9">
     <g id="line2d_9">
      <g>
       <use xlink:href="#m5a503db89d" x="643.403045" y="384.48" style="stroke: #000000; stroke-width: 0.8"/>
      </g>
     </g>
     <g id="text_9">
      <!-- 8 -->
      <g transform="translate(640.221795 399.078438) scale(0.1 -0.1)">
       <use xlink:href="#DejaVuSans-38"/>
      </g>
     </g>
    </g>
    <g id="text_10">
     <!-- 1e8 -->
     <g transform="translate(629.121875 411.756563) scale(0.1 -0.1)">
      <defs>
       <path id="DejaVuSans-31" d="M 794 531 
L 1825 531 
L 1825 4091 
L 703 3866 
L 703 4441 
L 1819 4666 
L 2450 4666 
L 2450 531 
L 3481 531 
L 3481 0 
L 794 0 
L 794 531 
z
" transform="scale(0.015625)"/>
       <path id="DejaVuSans-65" d="M 3597 1894 
L 3597 1613 
L 953 1613 
Q 991 1019 1311 708 
Q 1631 397 2203 397 
Q 2534 397 2845 478 
Q 3156 559 3463 722 
L 3463 178 
Q 3153 47 2828 -22 
Q 2503 -91 2169 -91 
Q 1331 -91 842 396 
Q 353 884 353 1716 
Q 353 2575 817 3079 
Q 1281 3584 2069 3584 
Q 2775 3584 3186 3129 
Q 3597 2675 3597 1894 
z
M 3022 2063 
Q 3016 2534 2758 2815 
Q 2500 3097 2075 3097 
Q 1594 3097 1305 2825 
Q 1016 2553 972 2059 
L 3022 2063 
z
" transform="scale(0.015625)"/>
      </defs>
      <use xlink:href="#DejaVuSans-31"/>
      <use xlink:href="#DejaVuSans-65" x="63.623047"/>
      <use xlink:href="#DejaVuSans-38" x="125.146484"/>
     </g>
    </g>
   </g>
   <g id="matplotlib.axis_2">
    <g id="ytick_1">
     <g id="line2d_10">
      <defs>
       <path id="m7cc391ea92" d="M 0 0 
L -3.5 0 
" style="stroke: #000000; stroke-width: 0.8"/>
      </defs>
      <g>
       <use xlink:href="#m7cc391ea92" x="90" y="365.406713" style="stroke: #000000; stroke-width: 0.8"/>
      </g>
     </g>
     <g id="text_11">
      <!-- −6 -->
      <g transform="translate(68.257812 369.205931) scale(0.1 -0.1)">
       <use xlink:href="#DejaVuSans-2212"/>
       <use xlink:href="#DejaVuSans-36" x="83.789062"/>
      </g>
     </g>
    </g>
    <g id="ytick_2">
     <g id="line2d_11">
      <g>
       <use xlink:href="#m7cc391ea92" x="90" y="326.129815" style="stroke: #000000; stroke-width: 0.8"/>
      </g>
     </g>
     <g id="text_12">
      <!-- −4 -->
      <g transform="translate(68.257812 329.929034) scale(0.1 -0.1)">
       <use xlink:href="#DejaVuSans-2212"/>
       <use xlink:href="#DejaVuSans-34" x="83.789062"/>
      </g>
     </g>
    </g>
    <g id="ytick_3">
     <g id="line2d_12">
      <g>
       <use xlink:href="#m7cc391ea92" x="90" y="286.852918" style="stroke: #000000; stroke-width: 0.8"/>
      </g>
     </g>
     <g id="text_13">
      <!-- −2 -->
      <g transform="translate(68.257812 290.652137) scale(0.1 -0.1)">
       <use xlink:href="#DejaVuSans-2212"/>
       <use xlink:href="#DejaVuSans-32" x="83.789062"/>
      </g>
     </g>
    </g>
    <g id="ytick_4">
     <g id="line2d_13">
      <g>
       <use xlink:href="#m7cc391ea92" x="90" y="247.576021" style="stroke: #000000; stroke-width: 0.8"/>
      </g>
     </g>
     <g id="text_14">
      <!-- 0 -->
      <g transform="translate(76.6375 251.37524) scale(0.1 -0.1)">
       <use xlink:href="#DejaVuSans-30"/>
      </g>
     </g>
    </g>
    <g id="ytick_5">
     <g id="line2d_14">
      <g>
       <use xlink:href="#m7cc391ea92" x="90" y="208.299124" style="stroke: #000000; stroke-width: 0.8"/>
      </g>
     </g>
     <g id="text_15">
      <!-- 2 -->
      <g transform="translate(76.6375 212.098343) scale(0.1 -0.1)">
       <use xlink:href="#DejaVuSans-32"/>
      </g>
     </g>
    </g>
    <g id="ytick_6">
     <g id="line2d_15">
      <g>
       <use xlink:href="#m7cc391ea92" x="90" y="169.022227" style="stroke: #000000; stroke-width: 0.8"/>
      </g>
     </g>
     <g id="text_16">
      <!-- 4 -->
      <g transform="translate(76.6375 172.821446) scale(0.1 -0.1)">
       <use xlink:href="#DejaVuSans-34"/>
      </g>
     </g>
    </g>
    <g id="ytick_7">
     <g id="line2d_16">
      <g>
       <use xlink:href="#m7cc391ea92" x="90" y="129.74533" style="stroke: #000000; stroke-width: 0.8"/>
      </g>
     </g>
     <g id="text_17">
      <!-- 6 -->
      <g transform="translate(76.6375 133.544549) scale(0.1 -0.1)">
       <use xlink:href="#DejaVuSans-36"/>
      </g>
     </g>
    </g>
    <g id="ytick_8">
     <g id="line2d_17">
      <g>
       <use xlink:href="#m7cc391ea92" x="90" y="90.468433" style="stroke: #000000; stroke-width: 0.8"/>
      </g>
     </g>
     <g id="text_18">
      <!-- 8 -->
      <g transform="translate(76.6375 94.267652) scale(0.1 -0.1)">
       <use xlink:href="#DejaVuSans-38"/>
      </g>
     </g>
    </g>
    <g id="text_19">
     <!-- 1e8 -->
     <g transform="translate(90 48.84) scale(0.1 -0.1)">
      <use xlink:href="#DejaVuSans-31"/>
      <use xlink:href="#DejaVuSans-65" x="63.623047"/>
      <use xlink:href="#DejaVuSans-38" x="125.146484"/>
     </g>
    </g>
   </g>
   <g id="line2d_18">
    <defs>
     <path id="m7df86c9683" d="M 0 3 
C 0.795609 3 1.55874 2.683901 2.12132 2.12132 
C 2.683901 1.55874 3 0.795609 3 0 
C 3 -0.795609 2.683901 -1.55874 2.12132 -2.12132 
C 1.55874 -2.683901 0.795609 -3 0 -3 
C -0.795609 -3 -1.55874 -2.683901 -2.12132 -2.12132 
C -2.683901 -1.55874 -3 -0.795609 -3 0 
C -3 0.795609 -2.683901 1.55874 -2.12132 2.12132 
C -1.55874 2.683901 -0.795609 3 0 3 
z
" style="stroke: #ff0000"/>
    </defs>
    <g clip-path="url(#p3ff8dd8aaa)">
     <use xlink:href="#m7df86c9683" x="191.663933" y="358.315509" style="fill: #ff0000; stroke: #ff0000"/>
     <use xlink:href="#m7df86c9683" x="203.368272" y="359.332468" style="fill: #ff0000; stroke: #ff0000"/>
     <use xlink:href="#m7df86c9683" x="115.363636" y="321.757621" style="fill: #ff0000; stroke: #ff0000"/>
     <use xlink:href="#m7df86c9683" x="224.568437" y="340.664828" style="fill: #ff0000; stroke: #ff0000"/>
     <use xlink:href="#m7df86c9683" x="215.737685" y="301.767199" style="fill: #ff0000; stroke: #ff0000"/>
     <use xlink:href="#m7df86c9683" x="241.124431" y="303.317269" style="fill: #ff0000; stroke: #ff0000"/>
     <use xlink:href="#m7df86c9683" x="167.785678" y="306.247012" style="fill: #ff0000; stroke: #ff0000"/>
     <use xlink:href="#m7df86c9683" x="180.44853" y="322.884742" style="fill: #ff0000; stroke: #ff0000"/>
     <use xlink:href="#m7df86c9683" x="192.832116" y="332.907982" style="fill: #ff0000; stroke: #ff0000"/>
     <use xlink:href="#m7df86c9683" x="206.2485" y="282.371597" style="fill: #ff0000; stroke: #ff0000"/>
     <use xlink:href="#m7df86c9683" x="177.222532" y="296.701159" style="fill: #ff0000; stroke: #ff0000"/>
     <use xlink:href="#m7df86c9683" x="199.904862" y="324.563485" style="fill: #ff0000; stroke: #ff0000"/>
     <use xlink:href="#m7df86c9683" x="161.318282" y="350.20666" style="fill: #ff0000; stroke: #ff0000"/>
     <use xlink:href="#m7df86c9683" x="226.667874" y="369.36" style="fill: #ff0000; stroke: #ff0000"/>
     <use xlink:href="#m7df86c9683" x="171.71843" y="303.30508" style="fill: #ff0000; stroke: #ff0000"/>
     <use xlink:href="#m7df86c9683" x="232.592159" y="290.359202" style="fill: #ff0000; stroke: #ff0000"/>
     <use xlink:href="#m7df86c9683" x="134.148015" y="343.456546" style="fill: #ff0000; stroke: #ff0000"/>
     <use xlink:href="#m7df86c9683" x="258.101297" y="351.739573" style="fill: #ff0000; stroke: #ff0000"/>
     <use xlink:href="#m7df86c9683" x="245.727389" y="339.417306" style="fill: #ff0000; stroke: #ff0000"/>
     <use xlink:href="#m7df86c9683" x="213.815901" y="288.373714" style="fill: #ff0000; stroke: #ff0000"/>
     <use xlink:href="#m7df86c9683" x="241.547852" y="353.381183" style="fill: #ff0000; stroke: #ff0000"/>
     <use xlink:href="#m7df86c9683" x="243.390939" y="358.29421" style="fill: #ff0000; stroke: #ff0000"/>
     <use xlink:href="#m7df86c9683" x="160.35724" y="317.174793" style="fill: #ff0000; stroke: #ff0000"/>
     <use xlink:href="#m7df86c9683" x="211.570527" y="313.177033" style="fill: #ff0000; stroke: #ff0000"/>
     <use xlink:href="#m7df86c9683" x="191.512974" y="325.00628" style="fill: #ff0000; stroke: #ff0000"/>
    </g>
   </g>
   <g id="line2d_19">
    <defs>
     <path id="m8247ff8717" d="M 0 3 
C 0.795609 3 1.55874 2.683901 2.12132 2.12132 
C 2.683901 1.55874 3 0.795609 3 0 
C 3 -0.795609 2.683901 -1.55874 2.12132 -2.12132 
C 1.55874 -2.683901 0.795609 -3 0 -3 
C -0.795609 -3 -1.55874 -2.683901 -2.12132 -2.12132 
C -2.683901 -1.55874 -3 -0.795609 -3 0 
C -3 0.795609 -2.683901 1.55874 -2.12132 2.12132 
C -1.55874 2.683901 -0.795609 3 0 3 
z
" style="stroke: #008000"/>
    </defs>
    <g clip-path="url(#p3ff8dd8aaa)">
     <use xlink:href="#m8247ff8717" x="263.174522" y="82.834853" style="fill: #008000; stroke: #008000"/>
     <use xlink:href="#m8247ff8717" x="286.629452" y="108.847582" style="fill: #008000; stroke: #008000"/>
     <use xlink:href="#m8247ff8717" x="270.135842" y="149.840304" style="fill: #008000; stroke: #008000"/>
     <use xlink:href="#m8247ff8717" x="272.230158" y="87.711277" style="fill: #008000; stroke: #008000"/>
     <use xlink:href="#m8247ff8717" x="241.94729" y="66.96" style="fill: #008000; stroke: #008000"/>
     <use xlink:href="#m8247ff8717" x="311.061696" y="138.48767" style="fill: #008000; stroke: #008000"/>
     <use xlink:href="#m8247ff8717" x="293.823208" y="98.852564" style="fill: #008000; stroke: #008000"/>
     <use xlink:href="#m8247ff8717" x="325.28903" y="124.105873" style="fill: #008000; stroke: #008000"/>
     <use xlink:href="#m8247ff8717" x="276.550616" y="74.983844" style="fill: #008000; stroke: #008000"/>
     <use xlink:href="#m8247ff8717" x="277.473812" y="71.453449" style="fill: #008000; stroke: #008000"/>
     <use xlink:href="#m8247ff8717" x="227.441329" y="138.167016" style="fill: #008000; stroke: #008000"/>
     <use xlink:href="#m8247ff8717" x="318.030631" y="69.459727" style="fill: #008000; stroke: #008000"/>
     <use xlink:href="#m8247ff8717" x="259.793067" y="136.230736" style="fill: #008000; stroke: #008000"/>
     <use xlink:href="#m8247ff8717" x="240.940334" y="151.740536" style="fill: #008000; stroke: #008000"/>
     <use xlink:href="#m8247ff8717" x="280.099552" y="99.522219" style="fill: #008000; stroke: #008000"/>
     <use xlink:href="#m8247ff8717" x="295.626972" y="146.632964" style="fill: #008000; stroke: #008000"/>
     <use xlink:href="#m8247ff8717" x="274.074557" y="80.357751" style="fill: #008000; stroke: #008000"/>
     <use xlink:href="#m8247ff8717" x="305.011023" y="70.539634" style="fill: #008000; stroke: #008000"/>
     <use xlink:href="#m8247ff8717" x="265.626781" y="105.818873" style="fill: #008000; stroke: #008000"/>
     <use xlink:href="#m8247ff8717" x="283.712299" y="69.119447" style="fill: #008000; stroke: #008000"/>
     <use xlink:href="#m8247ff8717" x="262.154675" y="109.617908" style="fill: #008000; stroke: #008000"/>
     <use xlink:href="#m8247ff8717" x="318.435453" y="94.391481" style="fill: #008000; stroke: #008000"/>
     <use xlink:href="#m8247ff8717" x="332.352653" y="98.67798" style="fill: #008000; stroke: #008000"/>
     <use xlink:href="#m8247ff8717" x="204.514213" y="90.754057" style="fill: #008000; stroke: #008000"/>
     <use xlink:href="#m8247ff8717" x="265.356895" y="103.952106" style="fill: #008000; stroke: #008000"/>
    </g>
   </g>
   <g id="line2d_20">
    <defs>
     <path id="m45e149fe5b" d="M 0 3 
C 0.795609 3 1.55874 2.683901 2.12132 2.12132 
C 2.683901 1.55874 3 0.795609 3 0 
C 3 -0.795609 2.683901 -1.55874 2.12132 -2.12132 
C 1.55874 -2.683901 0.795609 -3 0 -3 
C -0.795609 -3 -1.55874 -2.683901 -2.12132 -2.12132 
C -2.683901 -1.55874 -3 -0.795609 -3 0 
C -3 0.795609 -2.683901 1.55874 -2.12132 2.12132 
C -1.55874 2.683901 -0.795609 3 0 3 
z
" style="stroke: #0000ff"/>
    </defs>
    <g clip-path="url(#p3ff8dd8aaa)">
     <use xlink:href="#m45e149fe5b" x="438.905392" y="263.77975" style="fill: #0000ff; stroke: #0000ff"/>
     <use xlink:href="#m45e149fe5b" x="382.074031" y="219.833314" style="fill: #0000ff; stroke: #0000ff"/>
     <use xlink:href="#m45e149fe5b" x="482.153241" y="227.577829" style="fill: #0000ff; stroke: #0000ff"/>
     <use xlink:href="#m45e149fe5b" x="471.726336" y="189.466659" style="fill: #0000ff; stroke: #0000ff"/>
     <use xlink:href="#m45e149fe5b" x="388.459937" y="196.691268" style="fill: #0000ff; stroke: #0000ff"/>
     <use xlink:href="#m45e149fe5b" x="463.288946" y="175.202535" style="fill: #0000ff; stroke: #0000ff"/>
     <use xlink:href="#m45e149fe5b" x="441.997289" y="244.86314" style="fill: #0000ff; stroke: #0000ff"/>
     <use xlink:href="#m45e149fe5b" x="352.424539" y="236.588054" style="fill: #0000ff; stroke: #0000ff"/>
     <use xlink:href="#m45e149fe5b" x="377.849373" y="200.715804" style="fill: #0000ff; stroke: #0000ff"/>
     <use xlink:href="#m45e149fe5b" x="438.728045" y="255.818165" style="fill: #0000ff; stroke: #0000ff"/>
     <use xlink:href="#m45e149fe5b" x="430.463306" y="243.731102" style="fill: #0000ff; stroke: #0000ff"/>
     <use xlink:href="#m45e149fe5b" x="487.26094" y="190.654734" style="fill: #0000ff; stroke: #0000ff"/>
     <use xlink:href="#m45e149fe5b" x="460.282152" y="236.734655" style="fill: #0000ff; stroke: #0000ff"/>
     <use xlink:href="#m45e149fe5b" x="410.97361" y="189.36431" style="fill: #0000ff; stroke: #0000ff"/>
     <use xlink:href="#m45e149fe5b" x="427.680698" y="178.469031" style="fill: #0000ff; stroke: #0000ff"/>
     <use xlink:href="#m45e149fe5b" x="453.425535" y="247.303009" style="fill: #0000ff; stroke: #0000ff"/>
     <use xlink:href="#m45e149fe5b" x="389.523357" y="243.477272" style="fill: #0000ff; stroke: #0000ff"/>
     <use xlink:href="#m45e149fe5b" x="413.548941" y="188.830806" style="fill: #0000ff; stroke: #0000ff"/>
     <use xlink:href="#m45e149fe5b" x="458.619943" y="229.516629" style="fill: #0000ff; stroke: #0000ff"/>
     <use xlink:href="#m45e149fe5b" x="423.433237" y="250.900384" style="fill: #0000ff; stroke: #0000ff"/>
     <use xlink:href="#m45e149fe5b" x="451.290198" y="225.60253" style="fill: #0000ff; stroke: #0000ff"/>
     <use xlink:href="#m45e149fe5b" x="429.429007" y="260.1152" style="fill: #0000ff; stroke: #0000ff"/>
     <use xlink:href="#m45e149fe5b" x="376.2384" y="195.014289" style="fill: #0000ff; stroke: #0000ff"/>
     <use xlink:href="#m45e149fe5b" x="380.444339" y="258.31752" style="fill: #0000ff; stroke: #0000ff"/>
     <use xlink:href="#m45e149fe5b" x="428.98014" y="217.00283" style="fill: #0000ff; stroke: #0000ff"/>
    </g>
   </g>
   <g id="line2d_21">
    <defs>
     <path id="m78d3443030" d="M 0 3 
C 0.795609 3 1.55874 2.683901 2.12132 2.12132 
C 2.683901 1.55874 3 0.795609 3 0 
C 3 -0.795609 2.683901 -1.55874 2.12132 -2.12132 
C 1.55874 -2.683901 0.795609 -3 0 -3 
C -0.795609 -3 -1.55874 -2.683901 -2.12132 -2.12132 
C -2.683901 -1.55874 -3 -0.795609 -3 0 
C -3 0.795609 -2.683901 1.55874 -2.12132 2.12132 
C -1.55874 2.683901 -0.795609 3 0 3 
z
" style="stroke: #ffff00"/>
    </defs>
    <g clip-path="url(#p3ff8dd8aaa)">
     <use xlink:href="#m78d3443030" x="547.116154" y="353.279162" style="fill: #ffff00; stroke: #ffff00"/>
     <use xlink:href="#m78d3443030" x="583.444335" y="267.129139" style="fill: #ffff00; stroke: #ffff00"/>
     <use xlink:href="#m78d3443030" x="561.765722" y="316.255971" style="fill: #ffff00; stroke: #ffff00"/>
     <use xlink:href="#m78d3443030" x="576.29918" y="312.223059" style="fill: #ffff00; stroke: #ffff00"/>
     <use xlink:href="#m78d3443030" x="529.65104" y="333.255409" style="fill: #ffff00; stroke: #ffff00"/>
     <use xlink:href="#m78d3443030" x="592.673059" y="288.118302" style="fill: #ffff00; stroke: #ffff00"/>
     <use xlink:href="#m78d3443030" x="539.279617" y="292.225114" style="fill: #ffff00; stroke: #ffff00"/>
     <use xlink:href="#m78d3443030" x="566.338632" y="349.360066" style="fill: #ffff00; stroke: #ffff00"/>
     <use xlink:href="#m78d3443030" x="587.719227" y="360.518581" style="fill: #ffff00; stroke: #ffff00"/>
     <use xlink:href="#m78d3443030" x="489.747189" y="305.028117" style="fill: #ffff00; stroke: #ffff00"/>
     <use xlink:href="#m78d3443030" x="506.622238" y="297.928454" style="fill: #ffff00; stroke: #ffff00"/>
     <use xlink:href="#m78d3443030" x="553.187343" y="309.622725" style="fill: #ffff00; stroke: #ffff00"/>
     <use xlink:href="#m78d3443030" x="575.514315" y="315.548157" style="fill: #ffff00; stroke: #ffff00"/>
     <use xlink:href="#m78d3443030" x="575.134692" y="323.565081" style="fill: #ffff00; stroke: #ffff00"/>
     <use xlink:href="#m78d3443030" x="530.084315" y="273.987944" style="fill: #ffff00; stroke: #ffff00"/>
     <use xlink:href="#m78d3443030" x="547.42581" y="333.8927" style="fill: #ffff00; stroke: #ffff00"/>
     <use xlink:href="#m78d3443030" x="572.787403" y="324.673103" style="fill: #ffff00; stroke: #ffff00"/>
     <use xlink:href="#m78d3443030" x="517.869744" y="308.744651" style="fill: #ffff00; stroke: #ffff00"/>
     <use xlink:href="#m78d3443030" x="622.636364" y="300.449588" style="fill: #ffff00; stroke: #ffff00"/>
     <use xlink:href="#m78d3443030" x="554.213899" y="300.058127" style="fill: #ffff00; stroke: #ffff00"/>
     <use xlink:href="#m78d3443030" x="582.017918" y="307.31937" style="fill: #ffff00; stroke: #ffff00"/>
     <use xlink:href="#m78d3443030" x="548.972335" y="356.381068" style="fill: #ffff00; stroke: #ffff00"/>
     <use xlink:href="#m78d3443030" x="559.606395" y="304.927315" style="fill: #ffff00; stroke: #ffff00"/>
     <use xlink:href="#m78d3443030" x="620.949254" y="281.358778" style="fill: #ffff00; stroke: #ffff00"/>
     <use xlink:href="#m78d3443030" x="569.984167" y="310.226706" style="fill: #ffff00; stroke: #ffff00"/>
    </g>
   </g>
   <g id="line2d_22">
    <defs>
     <path id="mfc013e99fe" d="M -3 3 
L 3 -3 
M -3 -3 
L 3 3 
" style="stroke: #000000"/>
    </defs>
    <g clip-path="url(#p3ff8dd8aaa)">
     <use xlink:href="#mfc013e99fe" x="191.512974" y="325.00628" style="stroke: #000000"/>
     <use xlink:href="#mfc013e99fe" x="265.356895" y="103.952106" style="stroke: #000000"/>
     <use xlink:href="#mfc013e99fe" x="428.98014" y="217.00283" style="stroke: #000000"/>
     <use xlink:href="#mfc013e99fe" x="569.984167" y="310.226706" style="stroke: #000000"/>
    </g>
   </g>
   <g id="patch_3">
    <path d="M 90 384.48 
L 90 51.84 
" style="fill: none; stroke: #000000; stroke-width: 0.8; stroke-linejoin: miter; stroke-linecap: square"/>
   </g>
   <g id="patch_4">
    <path d="M 648 384.48 
L 648 51.84 
" style="fill: none; stroke: #000000; stroke-width: 0.8; stroke-linejoin: miter; stroke-linecap: square"/>
   </g>
   <g id="patch_5">
    <path d="M 90 384.48 
L 648 384.48 
" style="fill: none; stroke: #000000; stroke-width: 0.8; stroke-linejoin: miter; stroke-linecap: square"/>
   </g>
   <g id="patch_6">
    <path d="M 90 51.84 
L 648 51.84 
" style="fill: none; stroke: #000000; stroke-width: 0.8; stroke-linejoin: miter; stroke-linecap: square"/>
   </g>
   <g id="text_20">
    <!-- Origin point -->
    <g transform="translate(333.65625 45.84) scale(0.12 -0.12)">
     <defs>
      <path id="DejaVuSans-4f" d="M 2522 4238 
Q 1834 4238 1429 3725 
Q 1025 3213 1025 2328 
Q 1025 1447 1429 934 
Q 1834 422 2522 422 
Q 3209 422 3611 934 
Q 4013 1447 4013 2328 
Q 4013 3213 3611 3725 
Q 3209 4238 2522 4238 
z
M 2522 4750 
Q 3503 4750 4090 4092 
Q 4678 3434 4678 2328 
Q 4678 1225 4090 567 
Q 3503 -91 2522 -91 
Q 1538 -91 948 565 
Q 359 1222 359 2328 
Q 359 3434 948 4092 
Q 1538 4750 2522 4750 
z
" transform="scale(0.015625)"/>
      <path id="DejaVuSans-72" d="M 2631 2963 
Q 2534 3019 2420 3045 
Q 2306 3072 2169 3072 
Q 1681 3072 1420 2755 
Q 1159 2438 1159 1844 
L 1159 0 
L 581 0 
L 581 3500 
L 1159 3500 
L 1159 2956 
Q 1341 3275 1631 3429 
Q 1922 3584 2338 3584 
Q 2397 3584 2469 3576 
Q 2541 3569 2628 3553 
L 2631 2963 
z
" transform="scale(0.015625)"/>
      <path id="DejaVuSans-69" d="M 603 3500 
L 1178 3500 
L 1178 0 
L 603 0 
L 603 3500 
z
M 603 4863 
L 1178 4863 
L 1178 4134 
L 603 4134 
L 603 4863 
z
" transform="scale(0.015625)"/>
      <path id="DejaVuSans-67" d="M 2906 1791 
Q 2906 2416 2648 2759 
Q 2391 3103 1925 3103 
Q 1463 3103 1205 2759 
Q 947 2416 947 1791 
Q 947 1169 1205 825 
Q 1463 481 1925 481 
Q 2391 481 2648 825 
Q 2906 1169 2906 1791 
z
M 3481 434 
Q 3481 -459 3084 -895 
Q 2688 -1331 1869 -1331 
Q 1566 -1331 1297 -1286 
Q 1028 -1241 775 -1147 
L 775 -588 
Q 1028 -725 1275 -790 
Q 1522 -856 1778 -856 
Q 2344 -856 2625 -561 
Q 2906 -266 2906 331 
L 2906 616 
Q 2728 306 2450 153 
Q 2172 0 1784 0 
Q 1141 0 747 490 
Q 353 981 353 1791 
Q 353 2603 747 3093 
Q 1141 3584 1784 3584 
Q 2172 3584 2450 3431 
Q 2728 3278 2906 2969 
L 2906 3500 
L 3481 3500 
L 3481 434 
z
" transform="scale(0.015625)"/>
      <path id="DejaVuSans-6e" d="M 3513 2113 
L 3513 0 
L 2938 0 
L 2938 2094 
Q 2938 2591 2744 2837 
Q 2550 3084 2163 3084 
Q 1697 3084 1428 2787 
Q 1159 2491 1159 1978 
L 1159 0 
L 581 0 
L 581 3500 
L 1159 3500 
L 1159 2956 
Q 1366 3272 1645 3428 
Q 1925 3584 2291 3584 
Q 2894 3584 3203 3211 
Q 3513 2838 3513 2113 
z
" transform="scale(0.015625)"/>
      <path id="DejaVuSans-20" transform="scale(0.015625)"/>
      <path id="DejaVuSans-70" d="M 1159 525 
L 1159 -1331 
L 581 -1331 
L 581 3500 
L 1159 3500 
L 1159 2969 
Q 1341 3281 1617 3432 
Q 1894 3584 2278 3584 
Q 2916 3584 3314 3078 
Q 3713 2572 3713 1747 
Q 3713 922 3314 415 
Q 2916 -91 2278 -91 
Q 1894 -91 1617 61 
Q 1341 213 1159 525 
z
M 3116 1747 
Q 3116 2381 2855 2742 
Q 2594 3103 2138 3103 
Q 1681 3103 1420 2742 
Q 1159 2381 1159 1747 
Q 1159 1113 1420 752 
Q 1681 391 2138 391 
Q 2594 391 2855 752 
Q 3116 1113 3116 1747 
z
" transform="scale(0.015625)"/>
      <path id="DejaVuSans-6f" d="M 1959 3097 
Q 1497 3097 1228 2736 
Q 959 2375 959 1747 
Q 959 1119 1226 758 
Q 1494 397 1959 397 
Q 2419 397 2687 759 
Q 2956 1122 2956 1747 
Q 2956 2369 2687 2733 
Q 2419 3097 1959 3097 
z
M 1959 3584 
Q 2709 3584 3137 3096 
Q 3566 2609 3566 1747 
Q 3566 888 3137 398 
Q 2709 -91 1959 -91 
Q 1206 -91 779 398 
Q 353 888 353 1747 
Q 353 2609 779 3096 
Q 1206 3584 1959 3584 
z
" transform="scale(0.015625)"/>
      <path id="DejaVuSans-74" d="M 1172 4494 
L 1172 3500 
L 2356 3500 
L 2356 3053 
L 1172 3053 
L 1172 1153 
Q 1172 725 1289 603 
Q 1406 481 1766 481 
L 2356 481 
L 2356 0 
L 1766 0 
Q 1100 0 847 248 
Q 594 497 594 1153 
L 594 3053 
L 172 3053 
L 172 3500 
L 594 3500 
L 594 4494 
L 1172 4494 
z
" transform="scale(0.015625)"/>
     </defs>
     <use xlink:href="#DejaVuSans-4f"/>
     <use xlink:href="#DejaVuSans-72" x="78.710938"/>
     <use xlink:href="#DejaVuSans-69" x="119.824219"/>
     <use xlink:href="#DejaVuSans-67" x="147.607422"/>
     <use xlink:href="#DejaVuSans-69" x="211.083984"/>
     <use xlink:href="#DejaVuSans-6e" x="238.867188"/>
     <use xlink:href="#DejaVuSans-20" x="302.246094"/>
     <use xlink:href="#DejaVuSans-70" x="334.033203"/>
     <use xlink:href="#DejaVuSans-6f" x="397.509766"/>
     <use xlink:href="#DejaVuSans-69" x="458.691406"/>
     <use xlink:href="#DejaVuSans-6e" x="486.474609"/>
     <use xlink:href="#DejaVuSans-74" x="549.853516"/>
    </g>
   </g>
   <g id="legend_1">
    <g id="patch_7">
     <path d="M 550.09375 133.230625 
L 641 133.230625 
Q 643 133.230625 643 131.230625 
L 643 58.84 
Q 643 56.84 641 56.84 
L 550.09375 56.84 
Q 548.09375 56.84 548.09375 58.84 
L 548.09375 131.230625 
Q 548.09375 133.230625 550.09375 133.230625 
z
" style="fill: #ffffff; opacity: 0.8; stroke: #cccccc; stroke-linejoin: miter"/>
    </g>
    <g id="line2d_23">
     <g>
      <use xlink:href="#m7df86c9683" x="562.09375" y="64.938437" style="fill: #ff0000; stroke: #ff0000"/>
     </g>
    </g>
    <g id="text_21">
     <!-- Body 1 -->
     <g transform="translate(580.09375 68.438437) scale(0.1 -0.1)">
      <defs>
       <path id="DejaVuSans-42" d="M 1259 2228 
L 1259 519 
L 2272 519 
Q 2781 519 3026 730 
Q 3272 941 3272 1375 
Q 3272 1813 3026 2020 
Q 2781 2228 2272 2228 
L 1259 2228 
z
M 1259 4147 
L 1259 2741 
L 2194 2741 
Q 2656 2741 2882 2914 
Q 3109 3088 3109 3444 
Q 3109 3797 2882 3972 
Q 2656 4147 2194 4147 
L 1259 4147 
z
M 628 4666 
L 2241 4666 
Q 2963 4666 3353 4366 
Q 3744 4066 3744 3513 
Q 3744 3084 3544 2831 
Q 3344 2578 2956 2516 
Q 3422 2416 3680 2098 
Q 3938 1781 3938 1306 
Q 3938 681 3513 340 
Q 3088 0 2303 0 
L 628 0 
L 628 4666 
z
" transform="scale(0.015625)"/>
       <path id="DejaVuSans-64" d="M 2906 2969 
L 2906 4863 
L 3481 4863 
L 3481 0 
L 2906 0 
L 2906 525 
Q 2725 213 2448 61 
Q 2172 -91 1784 -91 
Q 1150 -91 751 415 
Q 353 922 353 1747 
Q 353 2572 751 3078 
Q 1150 3584 1784 3584 
Q 2172 3584 2448 3432 
Q 2725 3281 2906 2969 
z
M 947 1747 
Q 947 1113 1208 752 
Q 1469 391 1925 391 
Q 2381 391 2643 752 
Q 2906 1113 2906 1747 
Q 2906 2381 2643 2742 
Q 2381 3103 1925 3103 
Q 1469 3103 1208 2742 
Q 947 2381 947 1747 
z
" transform="scale(0.015625)"/>
       <path id="DejaVuSans-79" d="M 2059 -325 
Q 1816 -950 1584 -1140 
Q 1353 -1331 966 -1331 
L 506 -1331 
L 506 -850 
L 844 -850 
Q 1081 -850 1212 -737 
Q 1344 -625 1503 -206 
L 1606 56 
L 191 3500 
L 800 3500 
L 1894 763 
L 2988 3500 
L 3597 3500 
L 2059 -325 
z
" transform="scale(0.015625)"/>
      </defs>
      <use xlink:href="#DejaVuSans-42"/>
      <use xlink:href="#DejaVuSans-6f" x="68.603516"/>
      <use xlink:href="#DejaVuSans-64" x="129.785156"/>
      <use xlink:href="#DejaVuSans-79" x="193.261719"/>
      <use xlink:href="#DejaVuSans-20" x="252.441406"/>
      <use xlink:href="#DejaVuSans-31" x="284.228516"/>
     </g>
    </g>
    <g id="line2d_24">
     <g>
      <use xlink:href="#m8247ff8717" x="562.09375" y="79.616562" style="fill: #008000; stroke: #008000"/>
     </g>
    </g>
    <g id="text_22">
     <!-- Body 2 -->
     <g transform="translate(580.09375 83.116562) scale(0.1 -0.1)">
      <use xlink:href="#DejaVuSans-42"/>
      <use xlink:href="#DejaVuSans-6f" x="68.603516"/>
      <use xlink:href="#DejaVuSans-64" x="129.785156"/>
      <use xlink:href="#DejaVuSans-79" x="193.261719"/>
      <use xlink:href="#DejaVuSans-20" x="252.441406"/>
      <use xlink:href="#DejaVuSans-32" x="284.228516"/>
     </g>
    </g>
    <g id="line2d_25">
     <g>
      <use xlink:href="#m45e149fe5b" x="562.09375" y="94.294687" style="fill: #0000ff; stroke: #0000ff"/>
     </g>
    </g>
    <g id="text_23">
     <!-- Body 3 -->
     <g transform="translate(580.09375 97.794687) scale(0.1 -0.1)">
      <defs>
       <path id="DejaVuSans-33" d="M 2597 2516 
Q 3050 2419 3304 2112 
Q 3559 1806 3559 1356 
Q 3559 666 3084 287 
Q 2609 -91 1734 -91 
Q 1441 -91 1130 -33 
Q 819 25 488 141 
L 488 750 
Q 750 597 1062 519 
Q 1375 441 1716 441 
Q 2309 441 2620 675 
Q 2931 909 2931 1356 
Q 2931 1769 2642 2001 
Q 2353 2234 1838 2234 
L 1294 2234 
L 1294 2753 
L 1863 2753 
Q 2328 2753 2575 2939 
Q 2822 3125 2822 3475 
Q 2822 3834 2567 4026 
Q 2313 4219 1838 4219 
Q 1578 4219 1281 4162 
Q 984 4106 628 3988 
L 628 4550 
Q 988 4650 1302 4700 
Q 1616 4750 1894 4750 
Q 2613 4750 3031 4423 
Q 3450 4097 3450 3541 
Q 3450 3153 3228 2886 
Q 3006 2619 2597 2516 
z
" transform="scale(0.015625)"/>
      </defs>
      <use xlink:href="#DejaVuSans-42"/>
      <use xlink:href="#DejaVuSans-6f" x="68.603516"/>
      <use xlink:href="#DejaVuSans-64" x="129.785156"/>
      <use xlink:href="#DejaVuSans-79" x="193.261719"/>
      <use xlink:href="#DejaVuSans-20" x="252.441406"/>
      <use xlink:href="#DejaVuSans-33" x="284.228516"/>
     </g>
    </g>
    <g id="line2d_26">
     <g>
      <use xlink:href="#m78d3443030" x="562.09375" y="108.972812" style="fill: #ffff00; stroke: #ffff00"/>
     </g>
    </g>
    <g id="text_24">
     <!-- Body 4 -->
     <g transform="translate(580.09375 112.472812) scale(0.1 -0.1)">
      <use xlink:href="#DejaVuSans-42"/>
      <use xlink:href="#DejaVuSans-6f" x="68.603516"/>
      <use xlink:href="#DejaVuSans-64" x="129.785156"/>
      <use xlink:href="#DejaVuSans-79" x="193.261719"/>
      <use xlink:href="#DejaVuSans-20" x="252.441406"/>
      <use xlink:href="#DejaVuSans-34" x="284.228516"/>
     </g>
    </g>
    <g id="line2d_27">
     <g>
      <use xlink:href="#mfc013e99fe" x="562.09375" y="123.650937" style="stroke: #000000"/>
     </g>
    </g>
    <g id="text_25">
     <!-- Origin point -->
     <g transform="translate(580.09375 127.150937) scale(0.1 -0.1)">
      <use xlink:href="#DejaVuSans-4f"/>
      <use xlink:href="#DejaVuSans-72" x="78.710938"/>
      <use xlink:href="#DejaVuSans-69" x="119.824219"/>
      <use xlink:href="#DejaVuSans-67" x="147.607422"/>
      <use xlink:href="#DejaVuSans-69" x="211.083984"/>
      <use xlink:href="#DejaVuSans-6e" x="238.867188"/>
      <use xlink:href="#DejaVuSans-20" x="302.246094"/>
      <use xlink:href="#DejaVuSans-70" x="334.033203"/>
      <use xlink:href="#DejaVuSans-6f" x="397.509766"/>
      <use xlink:href="#DejaVuSans-69" x="458.691406"/>
      <use xlink:href="#DejaVuSans-6e" x="486.474609"/>
      <use xlink:href="#DejaVuSans-74" x="549.853516"/>
     </g>
    </g>
   </g>
  </g>
 </g>
 <defs>
  <clipPath id="p3ff8dd8aaa">
   <rect x="90" y="51.84" width="558" height="332.64"/>
  </clipPath>
 </defs>
</svg>
