<?xml version="1.0" encoding="UTF-8"?>
<!DOCTYPE svg PUBLIC "-//W3C//DTD SVG 1.1//EN" "http://www.w3.org/Graphics/SVG/1.1/DTD/svg11.dtd">
<svg width="179mm" height="95mm" viewBox="0 0 17900 9500" version="1.1" xmlns="http://www.w3.org/2000/svg" xmlns:xlink="http://www.w3.org/1999/xlink" stroke-width="28.222" stroke-linejoin="round" xml:space="preserve">
 <path fill="rgb(255,255,255)" stroke="none" d="M 8951,9515 L -11,9515 -11,-11 17913,-11 17913,9515 8951,9515 Z"/>
 <path fill="none" stroke="rgb(179,179,179)" stroke-linejoin="round" d="M 7635,7701 L 3102,7701 3102,1512 12167,1512 12167,7701 7635,7701 Z"/>
 <path fill="none" stroke="rgb(179,179,179)" stroke-linejoin="round" d="M 12167,7700 L 3102,7700"/>
 <path fill="none" stroke="rgb(179,179,179)" stroke-linejoin="round" d="M 12167,7081 L 3102,7081"/>
 <path fill="none" stroke="rgb(179,179,179)" stroke-linejoin="round" d="M 12167,6462 L 3102,6462"/>
 <path fill="none" stroke="rgb(179,179,179)" stroke-linejoin="round" d="M 12167,5843 L 3102,5843"/>
 <path fill="none" stroke="rgb(179,179,179)" stroke-linejoin="round" d="M 12167,5224 L 3102,5224"/>
 <path fill="none" stroke="rgb(179,179,179)" stroke-linejoin="round" d="M 12167,4606 L 3102,4606"/>
 <path fill="none" stroke="rgb(179,179,179)" stroke-linejoin="round" d="M 12167,3986 L 3102,3986"/>
 <path fill="none" stroke="rgb(179,179,179)" stroke-linejoin="round" d="M 12167,3368 L 3102,3368"/>
 <path fill="none" stroke="rgb(179,179,179)" stroke-linejoin="round" d="M 12167,2749 L 3102,2749"/>
 <path fill="none" stroke="rgb(179,179,179)" stroke-linejoin="round" d="M 12167,2130 L 3102,2130"/>
 <path fill="none" stroke="rgb(179,179,179)" stroke-linejoin="round" d="M 12167,1511 L 3102,1511"/>
 <path fill="none" stroke="rgb(179,179,179)" stroke-linejoin="round" d="M 3102,7850 L 3102,7700"/>
 <path fill="none" stroke="rgb(179,179,179)" stroke-linejoin="round" d="M 3102,7850 L 3102,7700"/>
 <path fill="none" stroke="rgb(179,179,179)" stroke-linejoin="round" d="M 4109,7850 L 4109,7700"/>
 <path fill="none" stroke="rgb(179,179,179)" stroke-linejoin="round" d="M 4109,7850 L 4109,7700"/>
 <path fill="none" stroke="rgb(179,179,179)" stroke-linejoin="round" d="M 5116,7850 L 5116,7700"/>
 <path fill="none" stroke="rgb(179,179,179)" stroke-linejoin="round" d="M 5116,7850 L 5116,7700"/>
 <path fill="none" stroke="rgb(179,179,179)" stroke-linejoin="round" d="M 6124,7850 L 6124,7700"/>
 <path fill="none" stroke="rgb(179,179,179)" stroke-linejoin="round" d="M 6124,7850 L 6124,7700"/>
 <path fill="none" stroke="rgb(179,179,179)" stroke-linejoin="round" d="M 7131,7850 L 7131,7700"/>
 <path fill="none" stroke="rgb(179,179,179)" stroke-linejoin="round" d="M 7131,7850 L 7131,7700"/>
 <path fill="none" stroke="rgb(179,179,179)" stroke-linejoin="round" d="M 8138,7850 L 8138,7700"/>
 <path fill="none" stroke="rgb(179,179,179)" stroke-linejoin="round" d="M 8138,7850 L 8138,7700"/>
 <path fill="none" stroke="rgb(179,179,179)" stroke-linejoin="round" d="M 9145,7850 L 9145,7700"/>
 <path fill="none" stroke="rgb(179,179,179)" stroke-linejoin="round" d="M 9145,7850 L 9145,7700"/>
 <path fill="none" stroke="rgb(179,179,179)" stroke-linejoin="round" d="M 10152,7850 L 10152,7700"/>
 <path fill="none" stroke="rgb(179,179,179)" stroke-linejoin="round" d="M 10152,7850 L 10152,7700"/>
 <path fill="none" stroke="rgb(179,179,179)" stroke-linejoin="round" d="M 11159,7850 L 11159,7700"/>
 <path fill="none" stroke="rgb(179,179,179)" stroke-linejoin="round" d="M 11159,7850 L 11159,7700"/>
 <path fill="none" stroke="rgb(179,179,179)" stroke-linejoin="round" d="M 12167,7850 L 12167,7700"/>
 <path fill="none" stroke="rgb(179,179,179)" stroke-linejoin="round" d="M 12167,7850 L 12167,7700"/>
 <path fill="none" stroke="rgb(179,179,179)" stroke-linejoin="round" d="M 3102,7700 L 12167,7700"/>
 <path fill="none" stroke="rgb(179,179,179)" stroke-linejoin="round" d="M 2952,7700 L 3102,7700"/>
 <path fill="none" stroke="rgb(179,179,179)" stroke-linejoin="round" d="M 2952,7700 L 3102,7700"/>
 <path fill="none" stroke="rgb(179,179,179)" stroke-linejoin="round" d="M 2952,7081 L 3102,7081"/>
 <path fill="none" stroke="rgb(179,179,179)" stroke-linejoin="round" d="M 2952,7081 L 3102,7081"/>
 <path fill="none" stroke="rgb(179,179,179)" stroke-linejoin="round" d="M 2952,6462 L 3102,6462"/>
 <path fill="none" stroke="rgb(179,179,179)" stroke-linejoin="round" d="M 2952,6462 L 3102,6462"/>
 <path fill="none" stroke="rgb(179,179,179)" stroke-linejoin="round" d="M 2952,5843 L 3102,5843"/>
 <path fill="none" stroke="rgb(179,179,179)" stroke-linejoin="round" d="M 2952,5843 L 3102,5843"/>
 <path fill="none" stroke="rgb(179,179,179)" stroke-linejoin="round" d="M 2952,5224 L 3102,5224"/>
 <path fill="none" stroke="rgb(179,179,179)" stroke-linejoin="round" d="M 2952,5224 L 3102,5224"/>
 <path fill="none" stroke="rgb(179,179,179)" stroke-linejoin="round" d="M 2952,4606 L 3102,4606"/>
 <path fill="none" stroke="rgb(179,179,179)" stroke-linejoin="round" d="M 2952,4606 L 3102,4606"/>
 <path fill="none" stroke="rgb(179,179,179)" stroke-linejoin="round" d="M 2952,3986 L 3102,3986"/>
 <path fill="none" stroke="rgb(179,179,179)" stroke-linejoin="round" d="M 2952,3986 L 3102,3986"/>
 <path fill="none" stroke="rgb(179,179,179)" stroke-linejoin="round" d="M 2952,3368 L 3102,3368"/>
 <path fill="none" stroke="rgb(179,179,179)" stroke-linejoin="round" d="M 2952,3368 L 3102,3368"/>
 <path fill="none" stroke="rgb(179,179,179)" stroke-linejoin="round" d="M 2952,2749 L 3102,2749"/>
 <path fill="none" stroke="rgb(179,179,179)" stroke-linejoin="round" d="M 2952,2749 L 3102,2749"/>
 <path fill="none" stroke="rgb(179,179,179)" stroke-linejoin="round" d="M 2952,2130 L 3102,2130"/>
 <path fill="none" stroke="rgb(179,179,179)" stroke-linejoin="round" d="M 2952,2130 L 3102,2130"/>
 <path fill="none" stroke="rgb(179,179,179)" stroke-linejoin="round" d="M 2952,1511 L 3102,1511"/>
 <path fill="none" stroke="rgb(179,179,179)" stroke-linejoin="round" d="M 2952,1511 L 3102,1511"/>
 <path fill="none" stroke="rgb(179,179,179)" stroke-linejoin="round" d="M 3102,7700 L 3102,1511"/>
 <path fill="none" stroke="rgb(255,211,32)" stroke-width="80" stroke-linejoin="round" d="M 3102,7696 L 4109,7673 5116,7652 6124,7603 7131,7627 8138,7615 9145,7531 10152,7518 11159,7399 12167,7290"/>
 <path fill="rgb(255,211,32)" stroke="none" d="M 2977,7571 L 3102,7821 3227,7571 2977,7571 Z"/>
 <path fill="none" stroke="rgb(255,211,32)" stroke-linejoin="round" d="M 2977,7571 L 3102,7821 3227,7571 2977,7571 Z"/>
 <path fill="rgb(255,211,32)" stroke="none" d="M 3984,7548 L 4109,7798 4234,7548 3984,7548 Z"/>
 <path fill="none" stroke="rgb(255,211,32)" stroke-linejoin="round" d="M 3984,7548 L 4109,7798 4234,7548 3984,7548 Z"/>
 <path fill="rgb(255,211,32)" stroke="none" d="M 4991,7527 L 5116,7777 5241,7527 4991,7527 Z"/>
 <path fill="none" stroke="rgb(255,211,32)" stroke-linejoin="round" d="M 4991,7527 L 5116,7777 5241,7527 4991,7527 Z"/>
 <path fill="rgb(255,211,32)" stroke="none" d="M 5999,7478 L 6124,7728 6249,7478 5999,7478 Z"/>
 <path fill="none" stroke="rgb(255,211,32)" stroke-linejoin="round" d="M 5999,7478 L 6124,7728 6249,7478 5999,7478 Z"/>
 <path fill="rgb(255,211,32)" stroke="none" d="M 7006,7502 L 7131,7752 7256,7502 7006,7502 Z"/>
 <path fill="none" stroke="rgb(255,211,32)" stroke-linejoin="round" d="M 7006,7502 L 7131,7752 7256,7502 7006,7502 Z"/>
 <path fill="rgb(255,211,32)" stroke="none" d="M 8013,7490 L 8138,7740 8263,7490 8013,7490 Z"/>
 <path fill="none" stroke="rgb(255,211,32)" stroke-linejoin="round" d="M 8013,7490 L 8138,7740 8263,7490 8013,7490 Z"/>
 <path fill="rgb(255,211,32)" stroke="none" d="M 9020,7406 L 9145,7656 9270,7406 9020,7406 Z"/>
 <path fill="none" stroke="rgb(255,211,32)" stroke-linejoin="round" d="M 9020,7406 L 9145,7656 9270,7406 9020,7406 Z"/>
 <path fill="rgb(255,211,32)" stroke="none" d="M 10027,7393 L 10152,7643 10277,7393 10027,7393 Z"/>
 <path fill="none" stroke="rgb(255,211,32)" stroke-linejoin="round" d="M 10027,7393 L 10152,7643 10277,7393 10027,7393 Z"/>
 <path fill="rgb(255,211,32)" stroke="none" d="M 11034,7274 L 11159,7524 11284,7274 11034,7274 Z"/>
 <path fill="none" stroke="rgb(255,211,32)" stroke-linejoin="round" d="M 11034,7274 L 11159,7524 11284,7274 11034,7274 Z"/>
 <path fill="rgb(255,211,32)" stroke="none" d="M 12042,7165 L 12167,7415 12292,7165 12042,7165 Z"/>
 <path fill="none" stroke="rgb(255,211,32)" stroke-linejoin="round" d="M 12042,7165 L 12167,7415 12292,7165 12042,7165 Z"/>
 <path fill="none" stroke="rgb(0,69,134)" stroke-width="80" stroke-linejoin="round" d="M 3102,7689 L 4109,7685 5116,7669 6124,7669 7131,7650 8138,7655 9145,7577 10152,7631 11159,7597 12167,7549"/>
 <path fill="rgb(0,69,134)" stroke="none" d="M 2977,7564 L 2977,7814 3227,7814 3227,7564 2977,7564 Z"/>
 <path fill="none" stroke="rgb(0,69,134)" stroke-linejoin="round" d="M 2977,7564 L 2977,7814 3227,7814 3227,7564 2977,7564 Z"/>
 <path fill="rgb(0,69,134)" stroke="none" d="M 3984,7560 L 3984,7810 4234,7810 4234,7560 3984,7560 Z"/>
 <path fill="none" stroke="rgb(0,69,134)" stroke-linejoin="round" d="M 3984,7560 L 3984,7810 4234,7810 4234,7560 3984,7560 Z"/>
 <path fill="rgb(0,69,134)" stroke="none" d="M 4991,7544 L 4991,7794 5241,7794 5241,7544 4991,7544 Z"/>
 <path fill="none" stroke="rgb(0,69,134)" stroke-linejoin="round" d="M 4991,7544 L 4991,7794 5241,7794 5241,7544 4991,7544 Z"/>
 <path fill="rgb(0,69,134)" stroke="none" d="M 5999,7544 L 5999,7794 6249,7794 6249,7544 5999,7544 Z"/>
 <path fill="none" stroke="rgb(0,69,134)" stroke-linejoin="round" d="M 5999,7544 L 5999,7794 6249,7794 6249,7544 5999,7544 Z"/>
 <path fill="rgb(0,69,134)" stroke="none" d="M 7006,7525 L 7006,7775 7256,7775 7256,7525 7006,7525 Z"/>
 <path fill="none" stroke="rgb(0,69,134)" stroke-linejoin="round" d="M 7006,7525 L 7006,7775 7256,7775 7256,7525 7006,7525 Z"/>
 <path fill="rgb(0,69,134)" stroke="none" d="M 8013,7530 L 8013,7780 8263,7780 8263,7530 8013,7530 Z"/>
 <path fill="none" stroke="rgb(0,69,134)" stroke-linejoin="round" d="M 8013,7530 L 8013,7780 8263,7780 8263,7530 8013,7530 Z"/>
 <path fill="rgb(0,69,134)" stroke="none" d="M 9020,7452 L 9020,7702 9270,7702 9270,7452 9020,7452 Z"/>
 <path fill="none" stroke="rgb(0,69,134)" stroke-linejoin="round" d="M 9020,7452 L 9020,7702 9270,7702 9270,7452 9020,7452 Z"/>
 <path fill="rgb(0,69,134)" stroke="none" d="M 10027,7506 L 10027,7756 10277,7756 10277,7506 10027,7506 Z"/>
 <path fill="none" stroke="rgb(0,69,134)" stroke-linejoin="round" d="M 10027,7506 L 10027,7756 10277,7756 10277,7506 10027,7506 Z"/>
 <path fill="rgb(0,69,134)" stroke="none" d="M 11034,7472 L 11034,7722 11284,7722 11284,7472 11034,7472 Z"/>
 <path fill="none" stroke="rgb(0,69,134)" stroke-linejoin="round" d="M 11034,7472 L 11034,7722 11284,7722 11284,7472 11034,7472 Z"/>
 <path fill="rgb(0,69,134)" stroke="none" d="M 12042,7424 L 12042,7674 12292,7674 12292,7424 12042,7424 Z"/>
 <path fill="none" stroke="rgb(0,69,134)" stroke-linejoin="round" d="M 12042,7424 L 12042,7674 12292,7674 12292,7424 12042,7424 Z"/>
 <path fill="none" stroke="rgb(255,66,14)" stroke-width="80" stroke-linejoin="round" d="M 3102,7664 L 4109,7576 5116,7227 6124,7439 7131,6853 8138,6923 9145,5983 10152,6302 11159,1823 12167,5148"/>
 <path fill="rgb(255,66,14)" stroke="none" d="M 2977,7664 L 3102,7789 3227,7664 3102,7539 2977,7664 Z"/>
 <path fill="none" stroke="rgb(255,66,14)" stroke-linejoin="round" d="M 2977,7664 L 3102,7789 3227,7664 3102,7539 2977,7664 Z"/>
 <path fill="rgb(255,66,14)" stroke="none" d="M 3984,7576 L 4109,7701 4234,7576 4109,7451 3984,7576 Z"/>
 <path fill="none" stroke="rgb(255,66,14)" stroke-linejoin="round" d="M 3984,7576 L 4109,7701 4234,7576 4109,7451 3984,7576 Z"/>
 <path fill="rgb(255,66,14)" stroke="none" d="M 4991,7227 L 5116,7352 5241,7227 5116,7102 4991,7227 Z"/>
 <path fill="none" stroke="rgb(255,66,14)" stroke-linejoin="round" d="M 4991,7227 L 5116,7352 5241,7227 5116,7102 4991,7227 Z"/>
 <path fill="rgb(255,66,14)" stroke="none" d="M 5999,7439 L 6124,7564 6249,7439 6124,7314 5999,7439 Z"/>
 <path fill="none" stroke="rgb(255,66,14)" stroke-linejoin="round" d="M 5999,7439 L 6124,7564 6249,7439 6124,7314 5999,7439 Z"/>
 <path fill="rgb(255,66,14)" stroke="none" d="M 7006,6853 L 7131,6978 7256,6853 7131,6728 7006,6853 Z"/>
 <path fill="none" stroke="rgb(255,66,14)" stroke-linejoin="round" d="M 7006,6853 L 7131,6978 7256,6853 7131,6728 7006,6853 Z"/>
 <path fill="rgb(255,66,14)" stroke="none" d="M 8013,6923 L 8138,7048 8263,6923 8138,6798 8013,6923 Z"/>
 <path fill="none" stroke="rgb(255,66,14)" stroke-linejoin="round" d="M 8013,6923 L 8138,7048 8263,6923 8138,6798 8013,6923 Z"/>
 <path fill="rgb(255,66,14)" stroke="none" d="M 9020,5983 L 9145,6108 9270,5983 9145,5858 9020,5983 Z"/>
 <path fill="none" stroke="rgb(255,66,14)" stroke-linejoin="round" d="M 9020,5983 L 9145,6108 9270,5983 9145,5858 9020,5983 Z"/>
 <path fill="rgb(255,66,14)" stroke="none" d="M 10027,6302 L 10152,6427 10277,6302 10152,6177 10027,6302 Z"/>
 <path fill="none" stroke="rgb(255,66,14)" stroke-linejoin="round" d="M 10027,6302 L 10152,6427 10277,6302 10152,6177 10027,6302 Z"/>
 <path fill="rgb(255,66,14)" stroke="none" d="M 11034,1823 L 11159,1948 11284,1823 11159,1698 11034,1823 Z"/>
 <path fill="none" stroke="rgb(255,66,14)" stroke-linejoin="round" d="M 11034,1823 L 11159,1948 11284,1823 11159,1698 11034,1823 Z"/>
 <path fill="rgb(255,66,14)" stroke="none" d="M 12042,5148 L 12167,5273 12292,5148 12167,5023 12042,5148 Z"/>
 <path fill="none" stroke="rgb(255,66,14)" stroke-linejoin="round" d="M 12042,5148 L 12167,5273 12292,5148 12167,5023 12042,5148 Z"/>
 <text class="SVGTextShape"><tspan class="TextParagraph" font-family="Liberation Sans, sans-serif" font-size="353px" font-weight="400"><tspan class="TextPosition" x="2816" y="8268"><tspan fill="rgb(0,0,0)" stroke="none" style="white-space: pre">100</tspan></tspan></tspan></text>
 <text class="SVGTextShape"><tspan class="TextParagraph" font-family="Liberation Sans, sans-serif" font-size="353px" font-weight="400"><tspan class="TextPosition" x="3823" y="8268"><tspan fill="rgb(0,0,0)" stroke="none" style="white-space: pre">200</tspan></tspan></tspan></text>
 <text class="SVGTextShape"><tspan class="TextParagraph" font-family="Liberation Sans, sans-serif" font-size="353px" font-weight="400"><tspan class="TextPosition" x="4830" y="8268"><tspan fill="rgb(0,0,0)" stroke="none" style="white-space: pre">300</tspan></tspan></tspan></text>
 <text class="SVGTextShape"><tspan class="TextParagraph" font-family="Liberation Sans, sans-serif" font-size="353px" font-weight="400"><tspan class="TextPosition" x="5838" y="8268"><tspan fill="rgb(0,0,0)" stroke="none" style="white-space: pre">400</tspan></tspan></tspan></text>
 <text class="SVGTextShape"><tspan class="TextParagraph" font-family="Liberation Sans, sans-serif" font-size="353px" font-weight="400"><tspan class="TextPosition" x="6845" y="8268"><tspan fill="rgb(0,0,0)" stroke="none" style="white-space: pre">500</tspan></tspan></tspan></text>
 <text class="SVGTextShape"><tspan class="TextParagraph" font-family="Liberation Sans, sans-serif" font-size="353px" font-weight="400"><tspan class="TextPosition" x="7852" y="8268"><tspan fill="rgb(0,0,0)" stroke="none" style="white-space: pre">600</tspan></tspan></tspan></text>
 <text class="SVGTextShape"><tspan class="TextParagraph" font-family="Liberation Sans, sans-serif" font-size="353px" font-weight="400"><tspan class="TextPosition" x="8860" y="8268"><tspan fill="rgb(0,0,0)" stroke="none" style="white-space: pre">700</tspan></tspan></tspan></text>
 <text class="SVGTextShape"><tspan class="TextParagraph" font-family="Liberation Sans, sans-serif" font-size="353px" font-weight="400"><tspan class="TextPosition" x="9867" y="8268"><tspan fill="rgb(0,0,0)" stroke="none" style="white-space: pre">800</tspan></tspan></tspan></text>
 <text class="SVGTextShape"><tspan class="TextParagraph" font-family="Liberation Sans, sans-serif" font-size="353px" font-weight="400"><tspan class="TextPosition" x="10874" y="8268"><tspan fill="rgb(0,0,0)" stroke="none" style="white-space: pre">900</tspan></tspan></tspan></text>
 <text class="SVGTextShape"><tspan class="TextParagraph" font-family="Liberation Sans, sans-serif" font-size="353px" font-weight="400"><tspan class="TextPosition" x="11787" y="8268"><tspan fill="rgb(0,0,0)" stroke="none" style="white-space: pre">1000</tspan></tspan></tspan></text>
 <text class="SVGTextShape"><tspan class="TextParagraph" font-family="Liberation Sans, sans-serif" font-size="353px" font-weight="400"><tspan class="TextPosition" x="1349" y="7818"><tspan fill="rgb(0,0,0)" stroke="none" style="white-space: pre">0,00E+00</tspan></tspan></tspan></text>
 <text class="SVGTextShape"><tspan class="TextParagraph" font-family="Liberation Sans, sans-serif" font-size="353px" font-weight="400"><tspan class="TextPosition" x="1434" y="7199"><tspan fill="rgb(0,0,0)" stroke="none" style="white-space: pre">2,00E-01</tspan></tspan></tspan></text>
 <text class="SVGTextShape"><tspan class="TextParagraph" font-family="Liberation Sans, sans-serif" font-size="353px" font-weight="400"><tspan class="TextPosition" x="1434" y="6580"><tspan fill="rgb(0,0,0)" stroke="none" style="white-space: pre">4,00E-01</tspan></tspan></tspan></text>
 <text class="SVGTextShape"><tspan class="TextParagraph" font-family="Liberation Sans, sans-serif" font-size="353px" font-weight="400"><tspan class="TextPosition" x="1434" y="5961"><tspan fill="rgb(0,0,0)" stroke="none" style="white-space: pre">6,00E-01</tspan></tspan></tspan></text>
 <text class="SVGTextShape"><tspan class="TextParagraph" font-family="Liberation Sans, sans-serif" font-size="353px" font-weight="400"><tspan class="TextPosition" x="1434" y="5342"><tspan fill="rgb(0,0,0)" stroke="none" style="white-space: pre">8,00E-01</tspan></tspan></tspan></text>
 <text class="SVGTextShape"><tspan class="TextParagraph" font-family="Liberation Sans, sans-serif" font-size="353px" font-weight="400"><tspan class="TextPosition" x="1349" y="4723"><tspan fill="rgb(0,0,0)" stroke="none" style="white-space: pre">1,00E+00</tspan></tspan></tspan></text>
 <text class="SVGTextShape"><tspan class="TextParagraph" font-family="Liberation Sans, sans-serif" font-size="353px" font-weight="400"><tspan class="TextPosition" x="1349" y="4103"><tspan fill="rgb(0,0,0)" stroke="none" style="white-space: pre">1,20E+00</tspan></tspan></tspan></text>
 <text class="SVGTextShape"><tspan class="TextParagraph" font-family="Liberation Sans, sans-serif" font-size="353px" font-weight="400"><tspan class="TextPosition" x="1349" y="3485"><tspan fill="rgb(0,0,0)" stroke="none" style="white-space: pre">1,40E+00</tspan></tspan></tspan></text>
 <text class="SVGTextShape"><tspan class="TextParagraph" font-family="Liberation Sans, sans-serif" font-size="353px" font-weight="400"><tspan class="TextPosition" x="1349" y="2866"><tspan fill="rgb(0,0,0)" stroke="none" style="white-space: pre">1,60E+00</tspan></tspan></tspan></text>
 <text class="SVGTextShape"><tspan class="TextParagraph" font-family="Liberation Sans, sans-serif" font-size="353px" font-weight="400"><tspan class="TextPosition" x="1349" y="2247"><tspan fill="rgb(0,0,0)" stroke="none" style="white-space: pre">1,80E+00</tspan></tspan></tspan></text>
 <text class="SVGTextShape"><tspan class="TextParagraph" font-family="Liberation Sans, sans-serif" font-size="353px" font-weight="400"><tspan class="TextPosition" x="1349" y="1628"><tspan fill="rgb(0,0,0)" stroke="none" style="white-space: pre">2,00E+00</tspan></tspan></tspan></text>
 <text class="SVGTextShape"><tspan class="TextParagraph" font-family="Liberation Sans, sans-serif" font-size="459px" font-weight="400"><tspan class="TextPosition" x="2072" y="876"><tspan fill="rgb(0,0,0)" stroke="none" style="white-space: pre">Časová náročnost běhu hlavních smyček algoritmů s narůstajícím n</tspan></tspan></tspan></text>
 <path fill="none" stroke="rgb(255,66,14)" stroke-width="80" stroke-linejoin="round" d="M 13023,4247 L 13823,4247"/>
 <path fill="rgb(255,66,14)" stroke="none" d="M 13317,4247 L 13423,4353 13528,4247 13423,4142 13317,4247 Z"/>
 <path fill="none" stroke="rgb(255,66,14)" stroke-linejoin="round" d="M 13317,4247 L 13423,4353 13528,4247 13423,4142 13317,4247 Z"/>
 <path fill="none" stroke="rgb(0,69,134)" stroke-width="80" stroke-linejoin="round" d="M 13023,4751 L 13823,4751"/>
 <path fill="rgb(0,69,134)" stroke="none" d="M 13317,4646 L 13317,4856 13528,4856 13528,4646 13317,4646 Z"/>
 <path fill="none" stroke="rgb(0,69,134)" stroke-linejoin="round" d="M 13317,4646 L 13317,4856 13528,4856 13528,4646 13317,4646 Z"/>
 <path fill="none" stroke="rgb(255,211,32)" stroke-width="80" stroke-linejoin="round" d="M 13023,5254 L 13823,5254"/>
 <path fill="rgb(255,211,32)" stroke="none" d="M 13317,5149 L 13423,5360 13528,5149 13317,5149 Z"/>
 <path fill="none" stroke="rgb(255,211,32)" stroke-linejoin="round" d="M 13317,5149 L 13423,5360 13528,5149 13317,5149 Z"/>
 <text class="SVGTextShape"><tspan class="TextParagraph" font-family="Liberation Sans, sans-serif" font-size="353px" font-weight="400"><tspan class="TextPosition" x="13923" y="4364"><tspan fill="rgb(0,0,0)" stroke="none" style="white-space: pre">k-medoids</tspan></tspan></tspan></text>
 <text class="SVGTextShape"><tspan class="TextParagraph" font-family="Liberation Sans, sans-serif" font-size="353px" font-weight="400"><tspan class="TextPosition" x="13923" y="4867"><tspan fill="rgb(0,0,0)" stroke="none" style="white-space: pre">k-means</tspan></tspan></tspan></text>
 <text class="SVGTextShape"><tspan class="TextParagraph" font-family="Liberation Sans, sans-serif" font-size="353px" font-weight="400"><tspan class="TextPosition" x="13923" y="5371"><tspan fill="rgb(0,0,0)" stroke="none" style="white-space: pre">Navrhovaný algoritmus</tspan></tspan></tspan></text>
 <text class="SVGTextShape"><tspan class="TextParagraph" font-family="Liberation Sans, sans-serif" font-size="318px" font-weight="400"><tspan class="TextPosition" x="6864" y="8936"><tspan fill="rgb(0,0,0)" stroke="none" style="white-space: pre">n</tspan></tspan></tspan></text>
 <text class="SVGTextShape" transform="rotate(-90 831 5329)"><tspan class="TextParagraph" font-family="Liberation Sans, sans-serif" font-size="318px" font-weight="400"><tspan class="TextPosition" x="831" y="5329"><tspan fill="rgb(0,0,0)" stroke="none" style="white-space: pre">Čas [s]</tspan></tspan></tspan></text>
</svg>