<?xml version="1.0" encoding="UTF-8"?>
<!DOCTYPE svg PUBLIC "-//W3C//DTD SVG 1.1//EN" "http://www.w3.org/Graphics/SVG/1.1/DTD/svg11.dtd">
<svg width="190mm" height="97mm" viewBox="0 0 19000 9700" version="1.1" xmlns="http://www.w3.org/2000/svg" xmlns:xlink="http://www.w3.org/1999/xlink" stroke-width="28.222" stroke-linejoin="round" xml:space="preserve">
 <path fill="rgb(255,255,255)" stroke="none" d="M 9498,9644 L -11,9644 -11,-11 19006,-11 19006,9644 9498,9644 Z"/>
 <path fill="none" stroke="rgb(179,179,179)" stroke-linejoin="round" d="M 8181,7827 L 3124,7827 3124,1518 13237,1518 13237,7827 8181,7827 Z"/>
 <path fill="none" stroke="rgb(179,179,179)" stroke-linejoin="round" d="M 13237,7826 L 3124,7826"/>
 <path fill="none" stroke="rgb(179,179,179)" stroke-linejoin="round" d="M 13237,7037 L 3124,7037"/>
 <path fill="none" stroke="rgb(179,179,179)" stroke-linejoin="round" d="M 13237,6248 L 3124,6248"/>
 <path fill="none" stroke="rgb(179,179,179)" stroke-linejoin="round" d="M 13237,5459 L 3124,5459"/>
 <path fill="none" stroke="rgb(179,179,179)" stroke-linejoin="round" d="M 13237,4672 L 3124,4672"/>
 <path fill="none" stroke="rgb(179,179,179)" stroke-linejoin="round" d="M 13237,3883 L 3124,3883"/>
 <path fill="none" stroke="rgb(179,179,179)" stroke-linejoin="round" d="M 13237,3094 L 3124,3094"/>
 <path fill="none" stroke="rgb(179,179,179)" stroke-linejoin="round" d="M 13237,2305 L 3124,2305"/>
 <path fill="none" stroke="rgb(179,179,179)" stroke-linejoin="round" d="M 13237,1517 L 3124,1517"/>
 <path fill="none" stroke="rgb(179,179,179)" stroke-linejoin="round" d="M 3124,7976 L 3124,7826"/>
 <path fill="none" stroke="rgb(179,179,179)" stroke-linejoin="round" d="M 3124,7976 L 3124,7826"/>
 <path fill="none" stroke="rgb(179,179,179)" stroke-linejoin="round" d="M 4247,7976 L 4247,7826"/>
 <path fill="none" stroke="rgb(179,179,179)" stroke-linejoin="round" d="M 4247,7976 L 4247,7826"/>
 <path fill="none" stroke="rgb(179,179,179)" stroke-linejoin="round" d="M 5371,7976 L 5371,7826"/>
 <path fill="none" stroke="rgb(179,179,179)" stroke-linejoin="round" d="M 5371,7976 L 5371,7826"/>
 <path fill="none" stroke="rgb(179,179,179)" stroke-linejoin="round" d="M 6495,7976 L 6495,7826"/>
 <path fill="none" stroke="rgb(179,179,179)" stroke-linejoin="round" d="M 6495,7976 L 6495,7826"/>
 <path fill="none" stroke="rgb(179,179,179)" stroke-linejoin="round" d="M 7619,7976 L 7619,7826"/>
 <path fill="none" stroke="rgb(179,179,179)" stroke-linejoin="round" d="M 7619,7976 L 7619,7826"/>
 <path fill="none" stroke="rgb(179,179,179)" stroke-linejoin="round" d="M 8742,7976 L 8742,7826"/>
 <path fill="none" stroke="rgb(179,179,179)" stroke-linejoin="round" d="M 8742,7976 L 8742,7826"/>
 <path fill="none" stroke="rgb(179,179,179)" stroke-linejoin="round" d="M 9865,7976 L 9865,7826"/>
 <path fill="none" stroke="rgb(179,179,179)" stroke-linejoin="round" d="M 9865,7976 L 9865,7826"/>
 <path fill="none" stroke="rgb(179,179,179)" stroke-linejoin="round" d="M 10989,7976 L 10989,7826"/>
 <path fill="none" stroke="rgb(179,179,179)" stroke-linejoin="round" d="M 10989,7976 L 10989,7826"/>
 <path fill="none" stroke="rgb(179,179,179)" stroke-linejoin="round" d="M 12113,7976 L 12113,7826"/>
 <path fill="none" stroke="rgb(179,179,179)" stroke-linejoin="round" d="M 12113,7976 L 12113,7826"/>
 <path fill="none" stroke="rgb(179,179,179)" stroke-linejoin="round" d="M 13237,7976 L 13237,7826"/>
 <path fill="none" stroke="rgb(179,179,179)" stroke-linejoin="round" d="M 13237,7976 L 13237,7826"/>
 <path fill="none" stroke="rgb(179,179,179)" stroke-linejoin="round" d="M 3124,7826 L 13237,7826"/>
 <path fill="none" stroke="rgb(179,179,179)" stroke-linejoin="round" d="M 2974,7826 L 3124,7826"/>
 <path fill="none" stroke="rgb(179,179,179)" stroke-linejoin="round" d="M 2974,7826 L 3124,7826"/>
 <path fill="none" stroke="rgb(179,179,179)" stroke-linejoin="round" d="M 2974,7037 L 3124,7037"/>
 <path fill="none" stroke="rgb(179,179,179)" stroke-linejoin="round" d="M 2974,7037 L 3124,7037"/>
 <path fill="none" stroke="rgb(179,179,179)" stroke-linejoin="round" d="M 2974,6248 L 3124,6248"/>
 <path fill="none" stroke="rgb(179,179,179)" stroke-linejoin="round" d="M 2974,6248 L 3124,6248"/>
 <path fill="none" stroke="rgb(179,179,179)" stroke-linejoin="round" d="M 2974,5459 L 3124,5459"/>
 <path fill="none" stroke="rgb(179,179,179)" stroke-linejoin="round" d="M 2974,5459 L 3124,5459"/>
 <path fill="none" stroke="rgb(179,179,179)" stroke-linejoin="round" d="M 2974,4672 L 3124,4672"/>
 <path fill="none" stroke="rgb(179,179,179)" stroke-linejoin="round" d="M 2974,4672 L 3124,4672"/>
 <path fill="none" stroke="rgb(179,179,179)" stroke-linejoin="round" d="M 2974,3883 L 3124,3883"/>
 <path fill="none" stroke="rgb(179,179,179)" stroke-linejoin="round" d="M 2974,3883 L 3124,3883"/>
 <path fill="none" stroke="rgb(179,179,179)" stroke-linejoin="round" d="M 2974,3094 L 3124,3094"/>
 <path fill="none" stroke="rgb(179,179,179)" stroke-linejoin="round" d="M 2974,3094 L 3124,3094"/>
 <path fill="none" stroke="rgb(179,179,179)" stroke-linejoin="round" d="M 2974,2305 L 3124,2305"/>
 <path fill="none" stroke="rgb(179,179,179)" stroke-linejoin="round" d="M 2974,2305 L 3124,2305"/>
 <path fill="none" stroke="rgb(179,179,179)" stroke-linejoin="round" d="M 2974,1517 L 3124,1517"/>
 <path fill="none" stroke="rgb(179,179,179)" stroke-linejoin="round" d="M 2974,1517 L 3124,1517"/>
 <path fill="none" stroke="rgb(179,179,179)" stroke-linejoin="round" d="M 3124,7826 L 3124,1517"/>
 <path fill="none" stroke="rgb(255,211,32)" stroke-width="80" stroke-linejoin="round" d="M 3124,7821 L 4247,7794 5371,7718 6495,7547 7619,7269 8742,6812 9865,6147 10989,5201 12113,3986 13237,2329"/>
 <path fill="rgb(255,211,32)" stroke="none" d="M 2999,7696 L 3124,7946 3249,7696 2999,7696 Z"/>
 <path fill="none" stroke="rgb(255,211,32)" stroke-linejoin="round" d="M 2999,7696 L 3124,7946 3249,7696 2999,7696 Z"/>
 <path fill="rgb(255,211,32)" stroke="none" d="M 4122,7669 L 4247,7919 4372,7669 4122,7669 Z"/>
 <path fill="none" stroke="rgb(255,211,32)" stroke-linejoin="round" d="M 4122,7669 L 4247,7919 4372,7669 4122,7669 Z"/>
 <path fill="rgb(255,211,32)" stroke="none" d="M 5246,7593 L 5371,7843 5496,7593 5246,7593 Z"/>
 <path fill="none" stroke="rgb(255,211,32)" stroke-linejoin="round" d="M 5246,7593 L 5371,7843 5496,7593 5246,7593 Z"/>
 <path fill="rgb(255,211,32)" stroke="none" d="M 6370,7422 L 6495,7672 6620,7422 6370,7422 Z"/>
 <path fill="none" stroke="rgb(255,211,32)" stroke-linejoin="round" d="M 6370,7422 L 6495,7672 6620,7422 6370,7422 Z"/>
 <path fill="rgb(255,211,32)" stroke="none" d="M 7494,7144 L 7619,7394 7744,7144 7494,7144 Z"/>
 <path fill="none" stroke="rgb(255,211,32)" stroke-linejoin="round" d="M 7494,7144 L 7619,7394 7744,7144 7494,7144 Z"/>
 <path fill="rgb(255,211,32)" stroke="none" d="M 8617,6687 L 8742,6937 8867,6687 8617,6687 Z"/>
 <path fill="none" stroke="rgb(255,211,32)" stroke-linejoin="round" d="M 8617,6687 L 8742,6937 8867,6687 8617,6687 Z"/>
 <path fill="rgb(255,211,32)" stroke="none" d="M 9740,6022 L 9865,6272 9990,6022 9740,6022 Z"/>
 <path fill="none" stroke="rgb(255,211,32)" stroke-linejoin="round" d="M 9740,6022 L 9865,6272 9990,6022 9740,6022 Z"/>
 <path fill="rgb(255,211,32)" stroke="none" d="M 10864,5076 L 10989,5326 11114,5076 10864,5076 Z"/>
 <path fill="none" stroke="rgb(255,211,32)" stroke-linejoin="round" d="M 10864,5076 L 10989,5326 11114,5076 10864,5076 Z"/>
 <path fill="rgb(255,211,32)" stroke="none" d="M 11988,3861 L 12113,4111 12238,3861 11988,3861 Z"/>
 <path fill="none" stroke="rgb(255,211,32)" stroke-linejoin="round" d="M 11988,3861 L 12113,4111 12238,3861 11988,3861 Z"/>
 <path fill="rgb(255,211,32)" stroke="none" d="M 13112,2204 L 13237,2454 13362,2204 13112,2204 Z"/>
 <path fill="none" stroke="rgb(255,211,32)" stroke-linejoin="round" d="M 13112,2204 L 13237,2454 13362,2204 13112,2204 Z"/>
 <path fill="none" stroke="rgb(255,66,14)" stroke-width="80" stroke-linejoin="round" d="M 3124,7825 L 4247,7825 5371,7825 6495,7825 7619,7825 8742,7825 9865,7825 10989,7825 12113,7825 13237,7825"/>
 <path fill="rgb(255,66,14)" stroke="none" d="M 2999,7825 L 3124,7950 3249,7825 3124,7700 2999,7825 Z"/>
 <path fill="none" stroke="rgb(255,66,14)" stroke-linejoin="round" d="M 2999,7825 L 3124,7950 3249,7825 3124,7700 2999,7825 Z"/>
 <path fill="rgb(255,66,14)" stroke="none" d="M 4122,7825 L 4247,7950 4372,7825 4247,7700 4122,7825 Z"/>
 <path fill="none" stroke="rgb(255,66,14)" stroke-linejoin="round" d="M 4122,7825 L 4247,7950 4372,7825 4247,7700 4122,7825 Z"/>
 <path fill="rgb(255,66,14)" stroke="none" d="M 5246,7825 L 5371,7950 5496,7825 5371,7700 5246,7825 Z"/>
 <path fill="none" stroke="rgb(255,66,14)" stroke-linejoin="round" d="M 5246,7825 L 5371,7950 5496,7825 5371,7700 5246,7825 Z"/>
 <path fill="rgb(255,66,14)" stroke="none" d="M 6370,7825 L 6495,7950 6620,7825 6495,7700 6370,7825 Z"/>
 <path fill="none" stroke="rgb(255,66,14)" stroke-linejoin="round" d="M 6370,7825 L 6495,7950 6620,7825 6495,7700 6370,7825 Z"/>
 <path fill="rgb(255,66,14)" stroke="none" d="M 7494,7825 L 7619,7950 7744,7825 7619,7700 7494,7825 Z"/>
 <path fill="none" stroke="rgb(255,66,14)" stroke-linejoin="round" d="M 7494,7825 L 7619,7950 7744,7825 7619,7700 7494,7825 Z"/>
 <path fill="rgb(255,66,14)" stroke="none" d="M 8617,7825 L 8742,7950 8867,7825 8742,7700 8617,7825 Z"/>
 <path fill="none" stroke="rgb(255,66,14)" stroke-linejoin="round" d="M 8617,7825 L 8742,7950 8867,7825 8742,7700 8617,7825 Z"/>
 <path fill="rgb(255,66,14)" stroke="none" d="M 9740,7825 L 9865,7950 9990,7825 9865,7700 9740,7825 Z"/>
 <path fill="none" stroke="rgb(255,66,14)" stroke-linejoin="round" d="M 9740,7825 L 9865,7950 9990,7825 9865,7700 9740,7825 Z"/>
 <path fill="rgb(255,66,14)" stroke="none" d="M 10864,7825 L 10989,7950 11114,7825 10989,7700 10864,7825 Z"/>
 <path fill="none" stroke="rgb(255,66,14)" stroke-linejoin="round" d="M 10864,7825 L 10989,7950 11114,7825 10989,7700 10864,7825 Z"/>
 <path fill="rgb(255,66,14)" stroke="none" d="M 11988,7825 L 12113,7950 12238,7825 12113,7700 11988,7825 Z"/>
 <path fill="none" stroke="rgb(255,66,14)" stroke-linejoin="round" d="M 11988,7825 L 12113,7950 12238,7825 12113,7700 11988,7825 Z"/>
 <path fill="rgb(255,66,14)" stroke="none" d="M 13112,7825 L 13237,7950 13362,7825 13237,7700 13112,7825 Z"/>
 <path fill="none" stroke="rgb(255,66,14)" stroke-linejoin="round" d="M 13112,7825 L 13237,7950 13362,7825 13237,7700 13112,7825 Z"/>
 <path fill="none" stroke="rgb(0,69,134)" stroke-width="80" stroke-linejoin="round" d="M 3124,7825 L 4247,7825 5371,7825 6495,7825 7619,7825 8742,7825 9865,7825 10989,7825 12113,7825 13237,7825"/>
 <path fill="rgb(0,69,134)" stroke="none" d="M 2999,7700 L 2999,7950 3249,7950 3249,7700 2999,7700 Z"/>
 <path fill="none" stroke="rgb(0,69,134)" stroke-linejoin="round" d="M 2999,7700 L 2999,7950 3249,7950 3249,7700 2999,7700 Z"/>
 <path fill="rgb(0,69,134)" stroke="none" d="M 4122,7700 L 4122,7950 4372,7950 4372,7700 4122,7700 Z"/>
 <path fill="none" stroke="rgb(0,69,134)" stroke-linejoin="round" d="M 4122,7700 L 4122,7950 4372,7950 4372,7700 4122,7700 Z"/>
 <path fill="rgb(0,69,134)" stroke="none" d="M 5246,7700 L 5246,7950 5496,7950 5496,7700 5246,7700 Z"/>
 <path fill="none" stroke="rgb(0,69,134)" stroke-linejoin="round" d="M 5246,7700 L 5246,7950 5496,7950 5496,7700 5246,7700 Z"/>
 <path fill="rgb(0,69,134)" stroke="none" d="M 6370,7700 L 6370,7950 6620,7950 6620,7700 6370,7700 Z"/>
 <path fill="none" stroke="rgb(0,69,134)" stroke-linejoin="round" d="M 6370,7700 L 6370,7950 6620,7950 6620,7700 6370,7700 Z"/>
 <path fill="rgb(0,69,134)" stroke="none" d="M 7494,7700 L 7494,7950 7744,7950 7744,7700 7494,7700 Z"/>
 <path fill="none" stroke="rgb(0,69,134)" stroke-linejoin="round" d="M 7494,7700 L 7494,7950 7744,7950 7744,7700 7494,7700 Z"/>
 <path fill="rgb(0,69,134)" stroke="none" d="M 8617,7700 L 8617,7950 8867,7950 8867,7700 8617,7700 Z"/>
 <path fill="none" stroke="rgb(0,69,134)" stroke-linejoin="round" d="M 8617,7700 L 8617,7950 8867,7950 8867,7700 8617,7700 Z"/>
 <path fill="rgb(0,69,134)" stroke="none" d="M 9740,7700 L 9740,7950 9990,7950 9990,7700 9740,7700 Z"/>
 <path fill="none" stroke="rgb(0,69,134)" stroke-linejoin="round" d="M 9740,7700 L 9740,7950 9990,7950 9990,7700 9740,7700 Z"/>
 <path fill="rgb(0,69,134)" stroke="none" d="M 10864,7700 L 10864,7950 11114,7950 11114,7700 10864,7700 Z"/>
 <path fill="none" stroke="rgb(0,69,134)" stroke-linejoin="round" d="M 10864,7700 L 10864,7950 11114,7950 11114,7700 10864,7700 Z"/>
 <path fill="rgb(0,69,134)" stroke="none" d="M 11988,7700 L 11988,7950 12238,7950 12238,7700 11988,7700 Z"/>
 <path fill="none" stroke="rgb(0,69,134)" stroke-linejoin="round" d="M 11988,7700 L 11988,7950 12238,7950 12238,7700 11988,7700 Z"/>
 <path fill="rgb(0,69,134)" stroke="none" d="M 13112,7700 L 13112,7950 13362,7950 13362,7700 13112,7700 Z"/>
 <path fill="none" stroke="rgb(0,69,134)" stroke-linejoin="round" d="M 13112,7700 L 13112,7950 13362,7950 13362,7700 13112,7700 Z"/>
 <text class="SVGTextShape"><tspan class="TextParagraph" font-family="Liberation Sans, sans-serif" font-size="353px" font-weight="400"><tspan class="TextPosition" x="2838" y="8394"><tspan fill="rgb(0,0,0)" stroke="none" style="white-space: pre">100</tspan></tspan></tspan></text>
 <text class="SVGTextShape"><tspan class="TextParagraph" font-family="Liberation Sans, sans-serif" font-size="353px" font-weight="400"><tspan class="TextPosition" x="3961" y="8394"><tspan fill="rgb(0,0,0)" stroke="none" style="white-space: pre">200</tspan></tspan></tspan></text>
 <text class="SVGTextShape"><tspan class="TextParagraph" font-family="Liberation Sans, sans-serif" font-size="353px" font-weight="400"><tspan class="TextPosition" x="5085" y="8394"><tspan fill="rgb(0,0,0)" stroke="none" style="white-space: pre">300</tspan></tspan></tspan></text>
 <text class="SVGTextShape"><tspan class="TextParagraph" font-family="Liberation Sans, sans-serif" font-size="353px" font-weight="400"><tspan class="TextPosition" x="6209" y="8394"><tspan fill="rgb(0,0,0)" stroke="none" style="white-space: pre">400</tspan></tspan></tspan></text>
 <text class="SVGTextShape"><tspan class="TextParagraph" font-family="Liberation Sans, sans-serif" font-size="353px" font-weight="400"><tspan class="TextPosition" x="7333" y="8394"><tspan fill="rgb(0,0,0)" stroke="none" style="white-space: pre">500</tspan></tspan></tspan></text>
 <text class="SVGTextShape"><tspan class="TextParagraph" font-family="Liberation Sans, sans-serif" font-size="353px" font-weight="400"><tspan class="TextPosition" x="8456" y="8394"><tspan fill="rgb(0,0,0)" stroke="none" style="white-space: pre">600</tspan></tspan></tspan></text>
 <text class="SVGTextShape"><tspan class="TextParagraph" font-family="Liberation Sans, sans-serif" font-size="353px" font-weight="400"><tspan class="TextPosition" x="9580" y="8394"><tspan fill="rgb(0,0,0)" stroke="none" style="white-space: pre">700</tspan></tspan></tspan></text>
 <text class="SVGTextShape"><tspan class="TextParagraph" font-family="Liberation Sans, sans-serif" font-size="353px" font-weight="400"><tspan class="TextPosition" x="10704" y="8394"><tspan fill="rgb(0,0,0)" stroke="none" style="white-space: pre">800</tspan></tspan></tspan></text>
 <text class="SVGTextShape"><tspan class="TextParagraph" font-family="Liberation Sans, sans-serif" font-size="353px" font-weight="400"><tspan class="TextPosition" x="11828" y="8394"><tspan fill="rgb(0,0,0)" stroke="none" style="white-space: pre">900</tspan></tspan></tspan></text>
 <text class="SVGTextShape"><tspan class="TextParagraph" font-family="Liberation Sans, sans-serif" font-size="353px" font-weight="400"><tspan class="TextPosition" x="12857" y="8394"><tspan fill="rgb(0,0,0)" stroke="none" style="white-space: pre">1000</tspan></tspan></tspan></text>
 <text class="SVGTextShape"><tspan class="TextParagraph" font-family="Liberation Sans, sans-serif" font-size="353px" font-weight="400"><tspan class="TextPosition" x="1371" y="7944"><tspan fill="rgb(0,0,0)" stroke="none" style="white-space: pre">0,00E+00</tspan></tspan></tspan></text>
 <text class="SVGTextShape"><tspan class="TextParagraph" font-family="Liberation Sans, sans-serif" font-size="353px" font-weight="400"><tspan class="TextPosition" x="1371" y="7155"><tspan fill="rgb(0,0,0)" stroke="none" style="white-space: pre">1,00E+01</tspan></tspan></tspan></text>
 <text class="SVGTextShape"><tspan class="TextParagraph" font-family="Liberation Sans, sans-serif" font-size="353px" font-weight="400"><tspan class="TextPosition" x="1371" y="6366"><tspan fill="rgb(0,0,0)" stroke="none" style="white-space: pre">2,00E+01</tspan></tspan></tspan></text>
 <text class="SVGTextShape"><tspan class="TextParagraph" font-family="Liberation Sans, sans-serif" font-size="353px" font-weight="400"><tspan class="TextPosition" x="1371" y="5577"><tspan fill="rgb(0,0,0)" stroke="none" style="white-space: pre">3,00E+01</tspan></tspan></tspan></text>
 <text class="SVGTextShape"><tspan class="TextParagraph" font-family="Liberation Sans, sans-serif" font-size="353px" font-weight="400"><tspan class="TextPosition" x="1371" y="4789"><tspan fill="rgb(0,0,0)" stroke="none" style="white-space: pre">4,00E+01</tspan></tspan></tspan></text>
 <text class="SVGTextShape"><tspan class="TextParagraph" font-family="Liberation Sans, sans-serif" font-size="353px" font-weight="400"><tspan class="TextPosition" x="1371" y="4000"><tspan fill="rgb(0,0,0)" stroke="none" style="white-space: pre">5,00E+01</tspan></tspan></tspan></text>
 <text class="SVGTextShape"><tspan class="TextParagraph" font-family="Liberation Sans, sans-serif" font-size="353px" font-weight="400"><tspan class="TextPosition" x="1371" y="3211"><tspan fill="rgb(0,0,0)" stroke="none" style="white-space: pre">6,00E+01</tspan></tspan></tspan></text>
 <text class="SVGTextShape"><tspan class="TextParagraph" font-family="Liberation Sans, sans-serif" font-size="353px" font-weight="400"><tspan class="TextPosition" x="1371" y="2422"><tspan fill="rgb(0,0,0)" stroke="none" style="white-space: pre">7,00E+01</tspan></tspan></tspan></text>
 <text class="SVGTextShape"><tspan class="TextParagraph" font-family="Liberation Sans, sans-serif" font-size="353px" font-weight="400"><tspan class="TextPosition" x="1371" y="1634"><tspan fill="rgb(0,0,0)" stroke="none" style="white-space: pre">8,00E+01</tspan></tspan></tspan></text>
 <text class="SVGTextShape"><tspan class="TextParagraph" font-family="Liberation Sans, sans-serif" font-size="459px" font-weight="400"><tspan class="TextPosition" x="2513" y="879"><tspan fill="rgb(0,0,0)" stroke="none" style="white-space: pre">Časová náročnost přípravy dat pro každý algoritmus s narůstajícím n</tspan></tspan></tspan></text>
 <path fill="none" stroke="rgb(0,69,134)" stroke-width="80" stroke-linejoin="round" d="M 14116,4312 L 14916,4312"/>
 <path fill="rgb(0,69,134)" stroke="none" d="M 14410,4207 L 14410,4418 14621,4418 14621,4207 14410,4207 Z"/>
 <path fill="none" stroke="rgb(0,69,134)" stroke-linejoin="round" d="M 14410,4207 L 14410,4418 14621,4418 14621,4207 14410,4207 Z"/>
 <path fill="none" stroke="rgb(255,66,14)" stroke-width="80" stroke-linejoin="round" d="M 14116,4816 L 14916,4816"/>
 <path fill="rgb(255,66,14)" stroke="none" d="M 14410,4816 L 14516,4921 14621,4816 14516,4711 14410,4816 Z"/>
 <path fill="none" stroke="rgb(255,66,14)" stroke-linejoin="round" d="M 14410,4816 L 14516,4921 14621,4816 14516,4711 14410,4816 Z"/>
 <path fill="none" stroke="rgb(255,211,32)" stroke-width="80" stroke-linejoin="round" d="M 14116,5319 L 14916,5319"/>
 <path fill="rgb(255,211,32)" stroke="none" d="M 14410,5214 L 14516,5425 14621,5214 14410,5214 Z"/>
 <path fill="none" stroke="rgb(255,211,32)" stroke-linejoin="round" d="M 14410,5214 L 14516,5425 14621,5214 14410,5214 Z"/>
 <text class="SVGTextShape"><tspan class="TextParagraph" font-family="Liberation Sans, sans-serif" font-size="353px" font-weight="400"><tspan class="TextPosition" x="15016" y="4429"><tspan fill="rgb(0,0,0)" stroke="none" style="white-space: pre">k-means</tspan></tspan></tspan></text>
 <text class="SVGTextShape"><tspan class="TextParagraph" font-family="Liberation Sans, sans-serif" font-size="353px" font-weight="400"><tspan class="TextPosition" x="15016" y="4932"><tspan fill="rgb(0,0,0)" stroke="none" style="white-space: pre">k-medoids</tspan></tspan></tspan></text>
 <text class="SVGTextShape"><tspan class="TextParagraph" font-family="Liberation Sans, sans-serif" font-size="353px" font-weight="400"><tspan class="TextPosition" x="15016" y="5436"><tspan fill="rgb(0,0,0)" stroke="none" style="white-space: pre">Navrhovaný algoritmus</tspan></tspan></tspan></text>
 <text class="SVGTextShape"><tspan class="TextParagraph" font-family="Liberation Sans, sans-serif" font-size="318px" font-weight="400"><tspan class="TextPosition" x="7410" y="9065"><tspan fill="rgb(0,0,0)" stroke="none" style="white-space: pre">n</tspan></tspan></tspan></text>
 <text class="SVGTextShape" transform="rotate(-90 831 5395)"><tspan class="TextParagraph" font-family="Liberation Sans, sans-serif" font-size="318px" font-weight="400"><tspan class="TextPosition" x="831" y="5395"><tspan fill="rgb(0,0,0)" stroke="none" style="white-space: pre">Čas [s]</tspan></tspan></tspan></text>
</svg>