<?xml version="1.0" encoding="UTF-8"?>
<!DOCTYPE svg PUBLIC "-//W3C//DTD SVG 1.1//EN" "http://www.w3.org/Graphics/SVG/1.1/DTD/svg11.dtd">
<svg width="214mm" height="135mm" viewBox="0 0 21400 13500" version="1.1" xmlns="http://www.w3.org/2000/svg" xmlns:xlink="http://www.w3.org/1999/xlink" stroke-width="28.222" stroke-linejoin="round" xml:space="preserve">
 <path fill="rgb(255,255,255)" stroke="none" d="M 10697,13514 L -11,13514 -11,-11 21405,-11 21405,13514 10697,13514 Z"/>
 <path fill="none" stroke="rgb(179,179,179)" stroke-linejoin="round" d="M 10170,12591 L 1282,12591 1282,2599 19058,2599 19058,12591 10170,12591 Z"/>
 <path fill="none" stroke="rgb(179,179,179)" stroke-linejoin="round" d="M 19058,12590 L 1282,12590"/>
 <path fill="none" stroke="rgb(179,179,179)" stroke-linejoin="round" d="M 19058,11479 L 1282,11479"/>
 <path fill="none" stroke="rgb(179,179,179)" stroke-linejoin="round" d="M 19058,10369 L 1282,10369"/>
 <path fill="none" stroke="rgb(179,179,179)" stroke-linejoin="round" d="M 19058,9259 L 1282,9259"/>
 <path fill="none" stroke="rgb(179,179,179)" stroke-linejoin="round" d="M 19058,8148 L 1282,8148"/>
 <path fill="none" stroke="rgb(179,179,179)" stroke-linejoin="round" d="M 19058,7038 L 1282,7038"/>
 <path fill="none" stroke="rgb(179,179,179)" stroke-linejoin="round" d="M 19058,5929 L 1282,5929"/>
 <path fill="none" stroke="rgb(179,179,179)" stroke-linejoin="round" d="M 19058,4818 L 1282,4818"/>
 <path fill="none" stroke="rgb(179,179,179)" stroke-linejoin="round" d="M 19058,3708 L 1282,3708"/>
 <path fill="none" stroke="rgb(179,179,179)" stroke-linejoin="round" d="M 19058,2598 L 1282,2598"/>
 <path fill="none" stroke="rgb(179,179,179)" stroke-linejoin="round" d="M 1282,12740 L 1282,12590"/>
 <path fill="none" stroke="rgb(179,179,179)" stroke-linejoin="round" d="M 1282,10519 L 1282,10369"/>
 <path fill="none" stroke="rgb(179,179,179)" stroke-linejoin="round" d="M 7207,12740 L 7207,12590"/>
 <path fill="none" stroke="rgb(179,179,179)" stroke-linejoin="round" d="M 7207,10519 L 7207,10369"/>
 <path fill="none" stroke="rgb(179,179,179)" stroke-linejoin="round" d="M 13132,12740 L 13132,12590"/>
 <path fill="none" stroke="rgb(179,179,179)" stroke-linejoin="round" d="M 13132,10519 L 13132,10369"/>
 <path fill="none" stroke="rgb(179,179,179)" stroke-linejoin="round" d="M 19058,12740 L 19058,12590"/>
 <path fill="none" stroke="rgb(179,179,179)" stroke-linejoin="round" d="M 19058,10519 L 19058,10369"/>
 <path fill="none" stroke="rgb(179,179,179)" stroke-linejoin="round" d="M 1282,10369 L 19058,10369"/>
 <path fill="none" stroke="rgb(179,179,179)" stroke-linejoin="round" d="M 1132,12590 L 1282,12590"/>
 <path fill="none" stroke="rgb(179,179,179)" stroke-linejoin="round" d="M 1132,12590 L 1282,12590"/>
 <path fill="none" stroke="rgb(179,179,179)" stroke-linejoin="round" d="M 1132,11479 L 1282,11479"/>
 <path fill="none" stroke="rgb(179,179,179)" stroke-linejoin="round" d="M 1132,11479 L 1282,11479"/>
 <path fill="none" stroke="rgb(179,179,179)" stroke-linejoin="round" d="M 1132,10369 L 1282,10369"/>
 <path fill="none" stroke="rgb(179,179,179)" stroke-linejoin="round" d="M 1132,10369 L 1282,10369"/>
 <path fill="none" stroke="rgb(179,179,179)" stroke-linejoin="round" d="M 1132,9259 L 1282,9259"/>
 <path fill="none" stroke="rgb(179,179,179)" stroke-linejoin="round" d="M 1132,9259 L 1282,9259"/>
 <path fill="none" stroke="rgb(179,179,179)" stroke-linejoin="round" d="M 1132,8148 L 1282,8148"/>
 <path fill="none" stroke="rgb(179,179,179)" stroke-linejoin="round" d="M 1132,8148 L 1282,8148"/>
 <path fill="none" stroke="rgb(179,179,179)" stroke-linejoin="round" d="M 1132,7038 L 1282,7038"/>
 <path fill="none" stroke="rgb(179,179,179)" stroke-linejoin="round" d="M 1132,7038 L 1282,7038"/>
 <path fill="none" stroke="rgb(179,179,179)" stroke-linejoin="round" d="M 1132,5929 L 1282,5929"/>
 <path fill="none" stroke="rgb(179,179,179)" stroke-linejoin="round" d="M 1132,5929 L 1282,5929"/>
 <path fill="none" stroke="rgb(179,179,179)" stroke-linejoin="round" d="M 1132,4818 L 1282,4818"/>
 <path fill="none" stroke="rgb(179,179,179)" stroke-linejoin="round" d="M 1132,4818 L 1282,4818"/>
 <path fill="none" stroke="rgb(179,179,179)" stroke-linejoin="round" d="M 1132,3708 L 1282,3708"/>
 <path fill="none" stroke="rgb(179,179,179)" stroke-linejoin="round" d="M 1132,3708 L 1282,3708"/>
 <path fill="none" stroke="rgb(179,179,179)" stroke-linejoin="round" d="M 1132,2598 L 1282,2598"/>
 <path fill="none" stroke="rgb(179,179,179)" stroke-linejoin="round" d="M 1132,2598 L 1282,2598"/>
 <path fill="none" stroke="rgb(179,179,179)" stroke-linejoin="round" d="M 1282,12590 L 1282,2598"/>
 <path fill="rgb(255,66,14)" stroke="none" d="M 2022,11389 L 3504,11389 3504,10369 2022,10369 2022,11389 Z"/>
 <path fill="rgb(255,66,14)" stroke="none" d="M 7948,10369 L 9429,10369 9429,10264 7948,10264 7948,10369 Z"/>
 <path fill="rgb(255,66,14)" stroke="none" d="M 13873,10369 L 15354,10369 15354,9058 13873,9058 13873,10369 Z"/>
 <path fill="rgb(255,211,32)" stroke="none" d="M 3504,10369 L 4985,10369 4985,3145 3504,3145 3504,10369 Z"/>
 <path fill="rgb(255,211,32)" stroke="none" d="M 9429,10369 L 10910,10369 10910,3145 9429,3145 9429,10369 Z"/>
 <path fill="rgb(255,211,32)" stroke="none" d="M 15354,10369 L 16835,10369 16835,3488 15354,3488 15354,10369 Z"/>
 <path fill="rgb(0,69,134)" stroke="none" d="M 4985,10369 L 6466,10369 6466,5584 4985,5584 4985,10369 Z"/>
 <path fill="rgb(0,69,134)" stroke="none" d="M 10910,10369 L 12391,10369 12391,5434 10910,5434 10910,10369 Z"/>
 <path fill="rgb(0,69,134)" stroke="none" d="M 16835,10369 L 18317,10369 18317,5128 16835,5128 16835,10369 Z"/>
 <text class="SVGTextShape"><tspan class="TextParagraph" font-family="Liberation Sans, sans-serif" font-size="353px" font-weight="400"><tspan class="TextPosition" x="2931" y="13158"><tspan fill="rgb(0,0,0)" stroke="none" style="white-space: pre"> </tspan><tspan fill="rgb(0,0,0)" stroke="none" style="white-space: pre">k_means_score</tspan></tspan></tspan></text>
 <text class="SVGTextShape"><tspan class="TextParagraph" font-family="Liberation Sans, sans-serif" font-size="353px" font-weight="400"><tspan class="TextPosition" x="8720" y="13158"><tspan fill="rgb(0,0,0)" stroke="none" style="white-space: pre"> </tspan><tspan fill="rgb(0,0,0)" stroke="none" style="white-space: pre">k_medoids_score</tspan></tspan></tspan></text>
 <text class="SVGTextShape"><tspan class="TextParagraph" font-family="Liberation Sans, sans-serif" font-size="353px" font-weight="400"><tspan class="TextPosition" x="14360" y="13158"><tspan fill="rgb(0,0,0)" stroke="none" style="white-space: pre"> </tspan><tspan fill="rgb(0,0,0)" stroke="none" style="white-space: pre">k_medoids_alt_score</tspan></tspan></tspan></text>
 <text class="SVGTextShape"><tspan class="TextParagraph" font-family="Liberation Sans, sans-serif" font-size="353px" font-weight="400"><tspan class="TextPosition" x="418" y="12708"><tspan fill="rgb(0,0,0)" stroke="none" style="white-space: pre">-0,2</tspan></tspan></tspan></text>
 <text class="SVGTextShape"><tspan class="TextParagraph" font-family="Liberation Sans, sans-serif" font-size="353px" font-weight="400"><tspan class="TextPosition" x="418" y="11597"><tspan fill="rgb(0,0,0)" stroke="none" style="white-space: pre">-0,1</tspan></tspan></tspan></text>
 <text class="SVGTextShape"><tspan class="TextParagraph" font-family="Liberation Sans, sans-serif" font-size="353px" font-weight="400"><tspan class="TextPosition" x="841" y="10487"><tspan fill="rgb(0,0,0)" stroke="none" style="white-space: pre">0</tspan></tspan></tspan></text>
 <text class="SVGTextShape"><tspan class="TextParagraph" font-family="Liberation Sans, sans-serif" font-size="353px" font-weight="400"><tspan class="TextPosition" x="545" y="9377"><tspan fill="rgb(0,0,0)" stroke="none" style="white-space: pre">0,1</tspan></tspan></tspan></text>
 <text class="SVGTextShape"><tspan class="TextParagraph" font-family="Liberation Sans, sans-serif" font-size="353px" font-weight="400"><tspan class="TextPosition" x="545" y="8266"><tspan fill="rgb(0,0,0)" stroke="none" style="white-space: pre">0,2</tspan></tspan></tspan></text>
 <text class="SVGTextShape"><tspan class="TextParagraph" font-family="Liberation Sans, sans-serif" font-size="353px" font-weight="400"><tspan class="TextPosition" x="545" y="7156"><tspan fill="rgb(0,0,0)" stroke="none" style="white-space: pre">0,3</tspan></tspan></tspan></text>
 <text class="SVGTextShape"><tspan class="TextParagraph" font-family="Liberation Sans, sans-serif" font-size="353px" font-weight="400"><tspan class="TextPosition" x="545" y="6046"><tspan fill="rgb(0,0,0)" stroke="none" style="white-space: pre">0,4</tspan></tspan></tspan></text>
 <text class="SVGTextShape"><tspan class="TextParagraph" font-family="Liberation Sans, sans-serif" font-size="353px" font-weight="400"><tspan class="TextPosition" x="545" y="4935"><tspan fill="rgb(0,0,0)" stroke="none" style="white-space: pre">0,5</tspan></tspan></tspan></text>
 <text class="SVGTextShape"><tspan class="TextParagraph" font-family="Liberation Sans, sans-serif" font-size="353px" font-weight="400"><tspan class="TextPosition" x="545" y="3825"><tspan fill="rgb(0,0,0)" stroke="none" style="white-space: pre">0,6</tspan></tspan></tspan></text>
 <text class="SVGTextShape"><tspan class="TextParagraph" font-family="Liberation Sans, sans-serif" font-size="353px" font-weight="400"><tspan class="TextPosition" x="545" y="2715"><tspan fill="rgb(0,0,0)" stroke="none" style="white-space: pre">0,7</tspan></tspan></tspan></text>
 <text class="SVGTextShape"><tspan class="TextParagraph" font-family="Liberation Sans, sans-serif" font-size="353px" font-weight="400"><tspan class="TextPosition" x="2170" y="10185"><tspan fill="rgb(0,0,0)" stroke="none" style="white-space: pre">-0,0919</tspan></tspan></tspan></text>
 <text class="SVGTextShape"><tspan class="TextParagraph" font-family="Liberation Sans, sans-serif" font-size="353px" font-weight="400"><tspan class="TextPosition" x="8160" y="10080"><tspan fill="rgb(0,0,0)" stroke="none" style="white-space: pre">0,0094</tspan></tspan></tspan></text>
 <text class="SVGTextShape"><tspan class="TextParagraph" font-family="Liberation Sans, sans-serif" font-size="353px" font-weight="400"><tspan class="TextPosition" x="14085" y="8874"><tspan fill="rgb(0,0,0)" stroke="none" style="white-space: pre">0,1181</tspan></tspan></tspan></text>
 <text class="SVGTextShape"><tspan class="TextParagraph" font-family="Liberation Sans, sans-serif" font-size="353px" font-weight="400"><tspan class="TextPosition" x="3715" y="2961"><tspan fill="rgb(0,0,0)" stroke="none" style="white-space: pre">0,6507</tspan></tspan></tspan></text>
 <text class="SVGTextShape"><tspan class="TextParagraph" font-family="Liberation Sans, sans-serif" font-size="353px" font-weight="400"><tspan class="TextPosition" x="9641" y="2961"><tspan fill="rgb(0,0,0)" stroke="none" style="white-space: pre">0,6507</tspan></tspan></tspan></text>
 <text class="SVGTextShape"><tspan class="TextParagraph" font-family="Liberation Sans, sans-serif" font-size="353px" font-weight="400"><tspan class="TextPosition" x="15567" y="3304"><tspan fill="rgb(0,0,0)" stroke="none" style="white-space: pre">0,6198</tspan></tspan></tspan></text>
 <text class="SVGTextShape"><tspan class="TextParagraph" font-family="Liberation Sans, sans-serif" font-size="353px" font-weight="400"><tspan class="TextPosition" x="5292" y="5400"><tspan fill="rgb(0,0,0)" stroke="none" style="white-space: pre">0,431</tspan></tspan></tspan></text>
 <text class="SVGTextShape"><tspan class="TextParagraph" font-family="Liberation Sans, sans-serif" font-size="353px" font-weight="400"><tspan class="TextPosition" x="11122" y="5250"><tspan fill="rgb(0,0,0)" stroke="none" style="white-space: pre">0,4445</tspan></tspan></tspan></text>
 <text class="SVGTextShape"><tspan class="TextParagraph" font-family="Liberation Sans, sans-serif" font-size="353px" font-weight="400"><tspan class="TextPosition" x="17048" y="4944"><tspan fill="rgb(0,0,0)" stroke="none" style="white-space: pre">0,4721</tspan></tspan></tspan></text>
 <text class="SVGTextShape"><tspan class="TextParagraph" font-family="Liberation Sans, sans-serif" font-size="459px" font-weight="400"><tspan class="TextPosition" x="7416" y="956"><tspan fill="rgb(0,0,0)" stroke="none" style="white-space: pre">Hodnocení úspěšnosti algoritmů</tspan></tspan></tspan></text>
 <text class="SVGTextShape"><tspan class="TextParagraph" font-family="Liberation Sans, sans-serif" font-size="388px" font-weight="400"><tspan class="TextPosition" x="8474" y="1925"><tspan fill="rgb(0,0,0)" stroke="none" style="white-space: pre">za použití &quot;silhuette score&quot;</tspan></tspan></tspan></text>
 <path fill="rgb(255,66,14)" stroke="none" d="M 19708,6353 L 19602,6353 19602,6142 19813,6142 19813,6353 19708,6353 Z"/>
 <path fill="rgb(255,211,32)" stroke="none" d="M 19708,6856 L 19602,6856 19602,6646 19813,6646 19813,6856 19708,6856 Z"/>
 <path fill="rgb(0,69,134)" stroke="none" d="M 19708,7360 L 19602,7360 19602,7149 19813,7149 19813,7360 19708,7360 Z"/>
 <text class="SVGTextShape"><tspan class="TextParagraph" font-family="Liberation Sans, sans-serif" font-size="353px" font-weight="400"><tspan class="TextPosition" x="19913" y="6364"><tspan fill="rgb(0,0,0)" stroke="none" style="white-space: pre">Min</tspan></tspan></tspan></text>
 <text class="SVGTextShape"><tspan class="TextParagraph" font-family="Liberation Sans, sans-serif" font-size="353px" font-weight="400"><tspan class="TextPosition" x="19913" y="6867"><tspan fill="rgb(0,0,0)" stroke="none" style="white-space: pre">Max</tspan></tspan></tspan></text>
 <text class="SVGTextShape"><tspan class="TextParagraph" font-family="Liberation Sans, sans-serif" font-size="353px" font-weight="400"><tspan class="TextPosition" x="19913" y="7371"><tspan fill="rgb(0,0,0)" stroke="none" style="white-space: pre">Průměr</tspan></tspan></tspan></text>
</svg>