<?xml version="1.0" encoding="UTF-8"?>
<!DOCTYPE svg PUBLIC "-//W3C//DTD SVG 1.1//EN" "http://www.w3.org/Graphics/SVG/1.1/DTD/svg11.dtd">
<svg width="160mm" height="90mm" viewBox="0 0 16000 9000" version="1.1" xmlns="http://www.w3.org/2000/svg" xmlns:xlink="http://www.w3.org/1999/xlink" stroke-width="28.222" stroke-linejoin="round" xml:space="preserve">
 <path fill="rgb(255,255,255)" stroke="none" d="M 7982,8977 L -11,8977 -11,-11 15975,-11 15975,8977 7982,8977 Z"/>
 <path fill="none" stroke="rgb(179,179,179)" stroke-linejoin="round" d="M 6104,7174 L 1941,7174 1941,1490 10267,1490 10267,7174 6104,7174 Z"/>
 <path fill="none" stroke="rgb(179,179,179)" stroke-linejoin="round" d="M 10267,7173 L 1941,7173"/>
 <path fill="none" stroke="rgb(179,179,179)" stroke-linejoin="round" d="M 10267,6462 L 1941,6462"/>
 <path fill="none" stroke="rgb(179,179,179)" stroke-linejoin="round" d="M 10267,5751 L 1941,5751"/>
 <path fill="none" stroke="rgb(179,179,179)" stroke-linejoin="round" d="M 10267,5041 L 1941,5041"/>
 <path fill="none" stroke="rgb(179,179,179)" stroke-linejoin="round" d="M 10267,4331 L 1941,4331"/>
 <path fill="none" stroke="rgb(179,179,179)" stroke-linejoin="round" d="M 10267,3620 L 1941,3620"/>
 <path fill="none" stroke="rgb(179,179,179)" stroke-linejoin="round" d="M 10267,2910 L 1941,2910"/>
 <path fill="none" stroke="rgb(179,179,179)" stroke-linejoin="round" d="M 10267,2199 L 1941,2199"/>
 <path fill="none" stroke="rgb(179,179,179)" stroke-linejoin="round" d="M 10267,1489 L 1941,1489"/>
 <path fill="none" stroke="rgb(179,179,179)" stroke-linejoin="round" d="M 1941,7323 L 1941,7173"/>
 <path fill="none" stroke="rgb(179,179,179)" stroke-linejoin="round" d="M 1941,7323 L 1941,7173"/>
 <path fill="none" stroke="rgb(179,179,179)" stroke-linejoin="round" d="M 2866,7323 L 2866,7173"/>
 <path fill="none" stroke="rgb(179,179,179)" stroke-linejoin="round" d="M 2866,7323 L 2866,7173"/>
 <path fill="none" stroke="rgb(179,179,179)" stroke-linejoin="round" d="M 3791,7323 L 3791,7173"/>
 <path fill="none" stroke="rgb(179,179,179)" stroke-linejoin="round" d="M 3791,7323 L 3791,7173"/>
 <path fill="none" stroke="rgb(179,179,179)" stroke-linejoin="round" d="M 4716,7323 L 4716,7173"/>
 <path fill="none" stroke="rgb(179,179,179)" stroke-linejoin="round" d="M 4716,7323 L 4716,7173"/>
 <path fill="none" stroke="rgb(179,179,179)" stroke-linejoin="round" d="M 5641,7323 L 5641,7173"/>
 <path fill="none" stroke="rgb(179,179,179)" stroke-linejoin="round" d="M 5641,7323 L 5641,7173"/>
 <path fill="none" stroke="rgb(179,179,179)" stroke-linejoin="round" d="M 6567,7323 L 6567,7173"/>
 <path fill="none" stroke="rgb(179,179,179)" stroke-linejoin="round" d="M 6567,7323 L 6567,7173"/>
 <path fill="none" stroke="rgb(179,179,179)" stroke-linejoin="round" d="M 7492,7323 L 7492,7173"/>
 <path fill="none" stroke="rgb(179,179,179)" stroke-linejoin="round" d="M 7492,7323 L 7492,7173"/>
 <path fill="none" stroke="rgb(179,179,179)" stroke-linejoin="round" d="M 8416,7323 L 8416,7173"/>
 <path fill="none" stroke="rgb(179,179,179)" stroke-linejoin="round" d="M 8416,7323 L 8416,7173"/>
 <path fill="none" stroke="rgb(179,179,179)" stroke-linejoin="round" d="M 9341,7323 L 9341,7173"/>
 <path fill="none" stroke="rgb(179,179,179)" stroke-linejoin="round" d="M 9341,7323 L 9341,7173"/>
 <path fill="none" stroke="rgb(179,179,179)" stroke-linejoin="round" d="M 10267,7323 L 10267,7173"/>
 <path fill="none" stroke="rgb(179,179,179)" stroke-linejoin="round" d="M 10267,7323 L 10267,7173"/>
 <path fill="none" stroke="rgb(179,179,179)" stroke-linejoin="round" d="M 1941,7173 L 10267,7173"/>
 <path fill="none" stroke="rgb(179,179,179)" stroke-linejoin="round" d="M 1791,7173 L 1941,7173"/>
 <path fill="none" stroke="rgb(179,179,179)" stroke-linejoin="round" d="M 1791,7173 L 1941,7173"/>
 <path fill="none" stroke="rgb(179,179,179)" stroke-linejoin="round" d="M 1791,6462 L 1941,6462"/>
 <path fill="none" stroke="rgb(179,179,179)" stroke-linejoin="round" d="M 1791,6462 L 1941,6462"/>
 <path fill="none" stroke="rgb(179,179,179)" stroke-linejoin="round" d="M 1791,5751 L 1941,5751"/>
 <path fill="none" stroke="rgb(179,179,179)" stroke-linejoin="round" d="M 1791,5751 L 1941,5751"/>
 <path fill="none" stroke="rgb(179,179,179)" stroke-linejoin="round" d="M 1791,5041 L 1941,5041"/>
 <path fill="none" stroke="rgb(179,179,179)" stroke-linejoin="round" d="M 1791,5041 L 1941,5041"/>
 <path fill="none" stroke="rgb(179,179,179)" stroke-linejoin="round" d="M 1791,4331 L 1941,4331"/>
 <path fill="none" stroke="rgb(179,179,179)" stroke-linejoin="round" d="M 1791,4331 L 1941,4331"/>
 <path fill="none" stroke="rgb(179,179,179)" stroke-linejoin="round" d="M 1791,3620 L 1941,3620"/>
 <path fill="none" stroke="rgb(179,179,179)" stroke-linejoin="round" d="M 1791,3620 L 1941,3620"/>
 <path fill="none" stroke="rgb(179,179,179)" stroke-linejoin="round" d="M 1791,2910 L 1941,2910"/>
 <path fill="none" stroke="rgb(179,179,179)" stroke-linejoin="round" d="M 1791,2910 L 1941,2910"/>
 <path fill="none" stroke="rgb(179,179,179)" stroke-linejoin="round" d="M 1791,2199 L 1941,2199"/>
 <path fill="none" stroke="rgb(179,179,179)" stroke-linejoin="round" d="M 1791,2199 L 1941,2199"/>
 <path fill="none" stroke="rgb(179,179,179)" stroke-linejoin="round" d="M 1791,1489 L 1941,1489"/>
 <path fill="none" stroke="rgb(179,179,179)" stroke-linejoin="round" d="M 1791,1489 L 1941,1489"/>
 <path fill="none" stroke="rgb(179,179,179)" stroke-linejoin="round" d="M 1941,7173 L 1941,1489"/>
 <path fill="none" stroke="rgb(0,69,134)" stroke-width="80" stroke-linejoin="round" d="M 1941,7169 L 2866,7144 3791,7073 4716,6897 5641,6654 6567,6234 7492,5599 8416,4749 9341,3611 10267,2160"/>
 <path fill="rgb(0,69,134)" stroke="none" d="M 1816,7044 L 1816,7294 2066,7294 2066,7044 1816,7044 Z"/>
 <path fill="none" stroke="rgb(0,69,134)" stroke-linejoin="round" d="M 1816,7044 L 1816,7294 2066,7294 2066,7044 1816,7044 Z"/>
 <path fill="rgb(0,69,134)" stroke="none" d="M 2741,7019 L 2741,7269 2991,7269 2991,7019 2741,7019 Z"/>
 <path fill="none" stroke="rgb(0,69,134)" stroke-linejoin="round" d="M 2741,7019 L 2741,7269 2991,7269 2991,7019 2741,7019 Z"/>
 <path fill="rgb(0,69,134)" stroke="none" d="M 3666,6948 L 3666,7198 3916,7198 3916,6948 3666,6948 Z"/>
 <path fill="none" stroke="rgb(0,69,134)" stroke-linejoin="round" d="M 3666,6948 L 3666,7198 3916,7198 3916,6948 3666,6948 Z"/>
 <path fill="rgb(0,69,134)" stroke="none" d="M 4591,6772 L 4591,7022 4841,7022 4841,6772 4591,6772 Z"/>
 <path fill="none" stroke="rgb(0,69,134)" stroke-linejoin="round" d="M 4591,6772 L 4591,7022 4841,7022 4841,6772 4591,6772 Z"/>
 <path fill="rgb(0,69,134)" stroke="none" d="M 5516,6529 L 5516,6779 5766,6779 5766,6529 5516,6529 Z"/>
 <path fill="none" stroke="rgb(0,69,134)" stroke-linejoin="round" d="M 5516,6529 L 5516,6779 5766,6779 5766,6529 5516,6529 Z"/>
 <path fill="rgb(0,69,134)" stroke="none" d="M 6442,6109 L 6442,6359 6692,6359 6692,6109 6442,6109 Z"/>
 <path fill="none" stroke="rgb(0,69,134)" stroke-linejoin="round" d="M 6442,6109 L 6442,6359 6692,6359 6692,6109 6442,6109 Z"/>
 <path fill="rgb(0,69,134)" stroke="none" d="M 7367,5474 L 7367,5724 7617,5724 7617,5474 7367,5474 Z"/>
 <path fill="none" stroke="rgb(0,69,134)" stroke-linejoin="round" d="M 7367,5474 L 7367,5724 7617,5724 7617,5474 7367,5474 Z"/>
 <path fill="rgb(0,69,134)" stroke="none" d="M 8291,4624 L 8291,4874 8541,4874 8541,4624 8291,4624 Z"/>
 <path fill="none" stroke="rgb(0,69,134)" stroke-linejoin="round" d="M 8291,4624 L 8291,4874 8541,4874 8541,4624 8291,4624 Z"/>
 <path fill="rgb(0,69,134)" stroke="none" d="M 9216,3486 L 9216,3736 9466,3736 9466,3486 9216,3486 Z"/>
 <path fill="none" stroke="rgb(0,69,134)" stroke-linejoin="round" d="M 9216,3486 L 9216,3736 9466,3736 9466,3486 9216,3486 Z"/>
 <path fill="rgb(0,69,134)" stroke="none" d="M 10142,2035 L 10142,2285 10392,2285 10392,2035 10142,2035 Z"/>
 <path fill="none" stroke="rgb(0,69,134)" stroke-linejoin="round" d="M 10142,2035 L 10142,2285 10392,2285 10392,2035 10142,2035 Z"/>
 <path fill="none" stroke="rgb(255,66,14)" stroke-width="80" stroke-linejoin="round" d="M 1941,7172 L 2866,7170 3791,7165 4716,7162 5641,7161 6567,7143 7492,7157 8416,7095 9341,7070 10267,7025"/>
 <path fill="rgb(255,66,14)" stroke="none" d="M 1816,7172 L 1941,7297 2066,7172 1941,7047 1816,7172 Z"/>
 <path fill="none" stroke="rgb(255,66,14)" stroke-linejoin="round" d="M 1816,7172 L 1941,7297 2066,7172 1941,7047 1816,7172 Z"/>
 <path fill="rgb(255,66,14)" stroke="none" d="M 2741,7170 L 2866,7295 2991,7170 2866,7045 2741,7170 Z"/>
 <path fill="none" stroke="rgb(255,66,14)" stroke-linejoin="round" d="M 2741,7170 L 2866,7295 2991,7170 2866,7045 2741,7170 Z"/>
 <path fill="rgb(255,66,14)" stroke="none" d="M 3666,7165 L 3791,7290 3916,7165 3791,7040 3666,7165 Z"/>
 <path fill="none" stroke="rgb(255,66,14)" stroke-linejoin="round" d="M 3666,7165 L 3791,7290 3916,7165 3791,7040 3666,7165 Z"/>
 <path fill="rgb(255,66,14)" stroke="none" d="M 4591,7162 L 4716,7287 4841,7162 4716,7037 4591,7162 Z"/>
 <path fill="none" stroke="rgb(255,66,14)" stroke-linejoin="round" d="M 4591,7162 L 4716,7287 4841,7162 4716,7037 4591,7162 Z"/>
 <path fill="rgb(255,66,14)" stroke="none" d="M 5516,7161 L 5641,7286 5766,7161 5641,7036 5516,7161 Z"/>
 <path fill="none" stroke="rgb(255,66,14)" stroke-linejoin="round" d="M 5516,7161 L 5641,7286 5766,7161 5641,7036 5516,7161 Z"/>
 <path fill="rgb(255,66,14)" stroke="none" d="M 6442,7143 L 6567,7268 6692,7143 6567,7018 6442,7143 Z"/>
 <path fill="none" stroke="rgb(255,66,14)" stroke-linejoin="round" d="M 6442,7143 L 6567,7268 6692,7143 6567,7018 6442,7143 Z"/>
 <path fill="rgb(255,66,14)" stroke="none" d="M 7367,7157 L 7492,7282 7617,7157 7492,7032 7367,7157 Z"/>
 <path fill="none" stroke="rgb(255,66,14)" stroke-linejoin="round" d="M 7367,7157 L 7492,7282 7617,7157 7492,7032 7367,7157 Z"/>
 <path fill="rgb(255,66,14)" stroke="none" d="M 8291,7095 L 8416,7220 8541,7095 8416,6970 8291,7095 Z"/>
 <path fill="none" stroke="rgb(255,66,14)" stroke-linejoin="round" d="M 8291,7095 L 8416,7220 8541,7095 8416,6970 8291,7095 Z"/>
 <path fill="rgb(255,66,14)" stroke="none" d="M 9216,7070 L 9341,7195 9466,7070 9341,6945 9216,7070 Z"/>
 <path fill="none" stroke="rgb(255,66,14)" stroke-linejoin="round" d="M 9216,7070 L 9341,7195 9466,7070 9341,6945 9216,7070 Z"/>
 <path fill="rgb(255,66,14)" stroke="none" d="M 10142,7025 L 10267,7150 10392,7025 10267,6900 10142,7025 Z"/>
 <path fill="none" stroke="rgb(255,66,14)" stroke-linejoin="round" d="M 10142,7025 L 10267,7150 10392,7025 10267,6900 10142,7025 Z"/>
 <path fill="none" stroke="rgb(255,211,32)" stroke-width="80" stroke-linejoin="round" d="M 1941,7172 L 2866,7172 3791,7172 4716,7172 5641,7170 6567,7171 7492,7171 8416,7170 9341,7170 10267,7169"/>
 <path fill="rgb(255,211,32)" stroke="none" d="M 1816,7047 L 1941,7297 2066,7047 1816,7047 Z"/>
 <path fill="none" stroke="rgb(255,211,32)" stroke-linejoin="round" d="M 1816,7047 L 1941,7297 2066,7047 1816,7047 Z"/>
 <path fill="rgb(255,211,32)" stroke="none" d="M 2741,7047 L 2866,7297 2991,7047 2741,7047 Z"/>
 <path fill="none" stroke="rgb(255,211,32)" stroke-linejoin="round" d="M 2741,7047 L 2866,7297 2991,7047 2741,7047 Z"/>
 <path fill="rgb(255,211,32)" stroke="none" d="M 3666,7047 L 3791,7297 3916,7047 3666,7047 Z"/>
 <path fill="none" stroke="rgb(255,211,32)" stroke-linejoin="round" d="M 3666,7047 L 3791,7297 3916,7047 3666,7047 Z"/>
 <path fill="rgb(255,211,32)" stroke="none" d="M 4591,7047 L 4716,7297 4841,7047 4591,7047 Z"/>
 <path fill="none" stroke="rgb(255,211,32)" stroke-linejoin="round" d="M 4591,7047 L 4716,7297 4841,7047 4591,7047 Z"/>
 <path fill="rgb(255,211,32)" stroke="none" d="M 5516,7045 L 5641,7295 5766,7045 5516,7045 Z"/>
 <path fill="none" stroke="rgb(255,211,32)" stroke-linejoin="round" d="M 5516,7045 L 5641,7295 5766,7045 5516,7045 Z"/>
 <path fill="rgb(255,211,32)" stroke="none" d="M 6442,7046 L 6567,7296 6692,7046 6442,7046 Z"/>
 <path fill="none" stroke="rgb(255,211,32)" stroke-linejoin="round" d="M 6442,7046 L 6567,7296 6692,7046 6442,7046 Z"/>
 <path fill="rgb(255,211,32)" stroke="none" d="M 7367,7046 L 7492,7296 7617,7046 7367,7046 Z"/>
 <path fill="none" stroke="rgb(255,211,32)" stroke-linejoin="round" d="M 7367,7046 L 7492,7296 7617,7046 7367,7046 Z"/>
 <path fill="rgb(255,211,32)" stroke="none" d="M 8291,7045 L 8416,7295 8541,7045 8291,7045 Z"/>
 <path fill="none" stroke="rgb(255,211,32)" stroke-linejoin="round" d="M 8291,7045 L 8416,7295 8541,7045 8291,7045 Z"/>
 <path fill="rgb(255,211,32)" stroke="none" d="M 9216,7045 L 9341,7295 9466,7045 9216,7045 Z"/>
 <path fill="none" stroke="rgb(255,211,32)" stroke-linejoin="round" d="M 9216,7045 L 9341,7295 9466,7045 9216,7045 Z"/>
 <path fill="rgb(255,211,32)" stroke="none" d="M 10142,7044 L 10267,7294 10392,7044 10142,7044 Z"/>
 <path fill="none" stroke="rgb(255,211,32)" stroke-linejoin="round" d="M 10142,7044 L 10267,7294 10392,7044 10142,7044 Z"/>
 <text class="SVGTextShape"><tspan class="TextParagraph" font-family="Liberation Sans, sans-serif" font-size="353px" font-weight="400"><tspan class="TextPosition" x="1655" y="7741"><tspan fill="rgb(0,0,0)" stroke="none" style="white-space: pre">100</tspan></tspan></tspan></text>
 <text class="SVGTextShape"><tspan class="TextParagraph" font-family="Liberation Sans, sans-serif" font-size="353px" font-weight="400"><tspan class="TextPosition" x="2580" y="7741"><tspan fill="rgb(0,0,0)" stroke="none" style="white-space: pre">200</tspan></tspan></tspan></text>
 <text class="SVGTextShape"><tspan class="TextParagraph" font-family="Liberation Sans, sans-serif" font-size="353px" font-weight="400"><tspan class="TextPosition" x="3505" y="7741"><tspan fill="rgb(0,0,0)" stroke="none" style="white-space: pre">300</tspan></tspan></tspan></text>
 <text class="SVGTextShape"><tspan class="TextParagraph" font-family="Liberation Sans, sans-serif" font-size="353px" font-weight="400"><tspan class="TextPosition" x="4430" y="7741"><tspan fill="rgb(0,0,0)" stroke="none" style="white-space: pre">400</tspan></tspan></tspan></text>
 <text class="SVGTextShape"><tspan class="TextParagraph" font-family="Liberation Sans, sans-serif" font-size="353px" font-weight="400"><tspan class="TextPosition" x="5355" y="7741"><tspan fill="rgb(0,0,0)" stroke="none" style="white-space: pre">500</tspan></tspan></tspan></text>
 <text class="SVGTextShape"><tspan class="TextParagraph" font-family="Liberation Sans, sans-serif" font-size="353px" font-weight="400"><tspan class="TextPosition" x="6281" y="7741"><tspan fill="rgb(0,0,0)" stroke="none" style="white-space: pre">600</tspan></tspan></tspan></text>
 <text class="SVGTextShape"><tspan class="TextParagraph" font-family="Liberation Sans, sans-serif" font-size="353px" font-weight="400"><tspan class="TextPosition" x="7206" y="7741"><tspan fill="rgb(0,0,0)" stroke="none" style="white-space: pre">700</tspan></tspan></tspan></text>
 <text class="SVGTextShape"><tspan class="TextParagraph" font-family="Liberation Sans, sans-serif" font-size="353px" font-weight="400"><tspan class="TextPosition" x="8131" y="7741"><tspan fill="rgb(0,0,0)" stroke="none" style="white-space: pre">800</tspan></tspan></tspan></text>
 <text class="SVGTextShape"><tspan class="TextParagraph" font-family="Liberation Sans, sans-serif" font-size="353px" font-weight="400"><tspan class="TextPosition" x="9056" y="7741"><tspan fill="rgb(0,0,0)" stroke="none" style="white-space: pre">900</tspan></tspan></tspan></text>
 <text class="SVGTextShape"><tspan class="TextParagraph" font-family="Liberation Sans, sans-serif" font-size="353px" font-weight="400"><tspan class="TextPosition" x="9887" y="7741"><tspan fill="rgb(0,0,0)" stroke="none" style="white-space: pre">1000</tspan></tspan></tspan></text>
 <text class="SVGTextShape"><tspan class="TextParagraph" font-family="Liberation Sans, sans-serif" font-size="353px" font-weight="400"><tspan class="TextPosition" x="1500" y="7291"><tspan fill="rgb(0,0,0)" stroke="none" style="white-space: pre">0</tspan></tspan></tspan></text>
 <text class="SVGTextShape"><tspan class="TextParagraph" font-family="Liberation Sans, sans-serif" font-size="353px" font-weight="400"><tspan class="TextPosition" x="1310" y="6580"><tspan fill="rgb(0,0,0)" stroke="none" style="white-space: pre">10</tspan></tspan></tspan></text>
 <text class="SVGTextShape"><tspan class="TextParagraph" font-family="Liberation Sans, sans-serif" font-size="353px" font-weight="400"><tspan class="TextPosition" x="1310" y="5869"><tspan fill="rgb(0,0,0)" stroke="none" style="white-space: pre">20</tspan></tspan></tspan></text>
 <text class="SVGTextShape"><tspan class="TextParagraph" font-family="Liberation Sans, sans-serif" font-size="353px" font-weight="400"><tspan class="TextPosition" x="1310" y="5159"><tspan fill="rgb(0,0,0)" stroke="none" style="white-space: pre">30</tspan></tspan></tspan></text>
 <text class="SVGTextShape"><tspan class="TextParagraph" font-family="Liberation Sans, sans-serif" font-size="353px" font-weight="400"><tspan class="TextPosition" x="1310" y="4448"><tspan fill="rgb(0,0,0)" stroke="none" style="white-space: pre">40</tspan></tspan></tspan></text>
 <text class="SVGTextShape"><tspan class="TextParagraph" font-family="Liberation Sans, sans-serif" font-size="353px" font-weight="400"><tspan class="TextPosition" x="1310" y="3737"><tspan fill="rgb(0,0,0)" stroke="none" style="white-space: pre">50</tspan></tspan></tspan></text>
 <text class="SVGTextShape"><tspan class="TextParagraph" font-family="Liberation Sans, sans-serif" font-size="353px" font-weight="400"><tspan class="TextPosition" x="1310" y="3027"><tspan fill="rgb(0,0,0)" stroke="none" style="white-space: pre">60</tspan></tspan></tspan></text>
 <text class="SVGTextShape"><tspan class="TextParagraph" font-family="Liberation Sans, sans-serif" font-size="353px" font-weight="400"><tspan class="TextPosition" x="1310" y="2316"><tspan fill="rgb(0,0,0)" stroke="none" style="white-space: pre">70</tspan></tspan></tspan></text>
 <text class="SVGTextShape"><tspan class="TextParagraph" font-family="Liberation Sans, sans-serif" font-size="353px" font-weight="400"><tspan class="TextPosition" x="1310" y="1606"><tspan fill="rgb(0,0,0)" stroke="none" style="white-space: pre">80</tspan></tspan></tspan></text>
 <text class="SVGTextShape"><tspan class="TextParagraph" font-family="Liberation Sans, sans-serif" font-size="459px" font-weight="400"><tspan class="TextPosition" x="3441" y="865"><tspan fill="rgb(0,0,0)" stroke="none" style="white-space: pre">Časová náročnost algoritmů s narůstajícím n</tspan></tspan></tspan></text>
 <path fill="none" stroke="rgb(255,211,32)" stroke-width="80" stroke-linejoin="round" d="M 11085,3978 L 11885,3978"/>
 <path fill="rgb(255,211,32)" stroke="none" d="M 11379,3873 L 11485,4084 11590,3873 11379,3873 Z"/>
 <path fill="none" stroke="rgb(255,211,32)" stroke-linejoin="round" d="M 11379,3873 L 11485,4084 11590,3873 11379,3873 Z"/>
 <path fill="none" stroke="rgb(255,66,14)" stroke-width="80" stroke-linejoin="round" d="M 11085,4482 L 11885,4482"/>
 <path fill="rgb(255,66,14)" stroke="none" d="M 11379,4482 L 11485,4587 11590,4482 11485,4377 11379,4482 Z"/>
 <path fill="none" stroke="rgb(255,66,14)" stroke-linejoin="round" d="M 11379,4482 L 11485,4587 11590,4482 11485,4377 11379,4482 Z"/>
 <path fill="none" stroke="rgb(0,69,134)" stroke-width="80" stroke-linejoin="round" d="M 11085,4985 L 11885,4985"/>
 <path fill="rgb(0,69,134)" stroke="none" d="M 11379,4880 L 11379,5091 11590,5091 11590,4880 11379,4880 Z"/>
 <path fill="none" stroke="rgb(0,69,134)" stroke-linejoin="round" d="M 11379,4880 L 11379,5091 11590,5091 11590,4880 11379,4880 Z"/>
 <text class="SVGTextShape"><tspan class="TextParagraph" font-family="Liberation Sans, sans-serif" font-size="353px" font-weight="400"><tspan class="TextPosition" x="11985" y="4095"><tspan fill="rgb(0,0,0)" stroke="none" style="white-space: pre">k-means</tspan></tspan></tspan></text>
 <text class="SVGTextShape"><tspan class="TextParagraph" font-family="Liberation Sans, sans-serif" font-size="353px" font-weight="400"><tspan class="TextPosition" x="11985" y="4598"><tspan fill="rgb(0,0,0)" stroke="none" style="white-space: pre">k-medoids</tspan></tspan></tspan></text>
 <text class="SVGTextShape"><tspan class="TextParagraph" font-family="Liberation Sans, sans-serif" font-size="353px" font-weight="400"><tspan class="TextPosition" x="11985" y="5102"><tspan fill="rgb(0,0,0)" stroke="none" style="white-space: pre">Navrhovaný algoritmus</tspan></tspan></tspan></text>
 <text class="SVGTextShape"><tspan class="TextParagraph" font-family="Liberation Sans, sans-serif" font-size="318px" font-weight="400"><tspan class="TextPosition" x="5895" y="8398"><tspan fill="rgb(0,0,0)" stroke="none" style="white-space: pre">n</tspan></tspan></tspan></text>
 <text class="SVGTextShape" transform="rotate(-90 831 5055)"><tspan class="TextParagraph" font-family="Liberation Sans, sans-serif" font-size="318px" font-weight="400"><tspan class="TextPosition" x="831" y="5055"><tspan fill="rgb(0,0,0)" stroke="none" style="white-space: pre">Čas [s]</tspan></tspan></tspan></text>
</svg>